<?xml version="1.0" encoding="UTF-8"?>
<svg id="TEXTS" xmlns="http://www.w3.org/2000/svg" viewBox="0 0 2231.62 1082.39">
  <defs>
    <style>
      .cls-1 {
        fill: #cdaca9;
      }

      .cls-1, .cls-2, .cls-3, .cls-4, .cls-5, .cls-6, .cls-7, .cls-8, .cls-9, .cls-10, .cls-11, .cls-12, .cls-13, .cls-14, .cls-15, .cls-16, .cls-17, .cls-18, .cls-19, .cls-20, .cls-21, .cls-22, .cls-23, .cls-24, .cls-25, .cls-26, .cls-27, .cls-28, .cls-29 {
        stroke-width: 0px;
      }

      .cls-2 {
        fill: #ea535a;
      }

      .cls-3 {
        fill: #f29ea0;
      }

      .cls-4 {
        fill: #ea5f60;
      }

      .cls-5 {
        fill: #ec666d;
      }

      .cls-6 {
        fill: #fbc247;
      }

      .cls-7 {
        fill: #e6e6e6;
      }

      .cls-8 {
        fill: #845ea2;
      }

      .cls-9 {
        fill: #4c1e1d;
      }

      .cls-10 {
        fill: #1daf55;
      }

      .cls-11 {
        fill: #fff7ee;
      }

      .cls-12 {
        fill: #ec807a;
      }

      .cls-13 {
        fill: #f18946;
      }

      .cls-14 {
        fill: #fff;
      }

      .cls-15 {
        fill: #4299b3;
      }

      .cls-16 {
        fill: #3c7bbb;
      }

      .cls-17 {
        fill: #2a81d1;
      }

      .cls-18 {
        fill: #4d4d4d;
        opacity: .44;
      }

      .cls-19 {
        fill: #236ab3;
      }

      .cls-20 {
        fill: #f2966d;
      }

      .cls-21 {
        fill: #662d2d;
      }

      .cls-22 {
        fill: #faba30;
      }

      .cls-23 {
        fill: #00a540;
      }

      .cls-24 {
        fill: #a589be;
      }

      .cls-25 {
        fill: #744a96;
      }

      .cls-26 {
        fill: #cc5f56;
      }

      .cls-27 {
        fill: #616160;
        opacity: .2;
      }

      .cls-28 {
        fill: #ef792f;
      }

      .cls-29 {
        fill: #66adca;
      }
    </style>
  </defs>
  <rect id="bg" class="cls-7" x="-4.66" y="-24.87" width="2240.26" height="1109.02"/>
  <g>
    <path class="cls-5" d="M687.08,232.4c.75.29,1.78-.2,1.72,1.11-.61,4.01-4.17,6.12-4.7,10.1.38.23.76.45,1.15.68-1.48,2.69-3.17,5.46-4.74,8.28-1.66,5.64-3.16,11.2-4.56,16.71.5.01.94.09.92.68-.43,2.34-1.91,5.29-3.16,8.38-.09.49-.19.98-.28,1.47.14.45.54.7.78.85-.54,1.41-1.14,2.62-1.7,3.73-1.6,8.12-3.36,16.32-5.4,24.72-2.04,8.39-4.33,17-7.08,25.86-.68,3.99-1.34,8.03-2.64,11.6-1.08,2.58-2.64,5.34-4.34,8-1.66,2.69-3.43,5.28-4.85,7.58,2.2.78,2.17,4.36,2.14,7.72,0,3.37.09,6.59,2.77,6.64-2,3.12-5.08,7.74-4.12,8.68,1.42,1.41,2.7,3.32,3.18,6.1.49,2.78.19,6.44-1.65,11.27-1.71,3.61-6.57,7.6-6.69,9.21-.22,2.52,5.17-2.62,4.96-.11,9.02-11.7,16.75-24.02,23.75-36.73,7.04-12.7,13.35-25.79,19.63-39.24.31-1.25,1.01-3.32,1.97-6.02,1-2.69,2.23-6.02,3.64-9.81,2.82-7.56,6.28-16.93,9.56-26.6,3.27-9.66,6.35-19.39,9.06-27.58,2.7-8.21,5.07-14.87,6.63-18.64.15-.47.29-.94.44-1.41,3.16-8.33,6.61-18.24,7.97-25.57.16-1.76.31-3.53.47-5.31.16-1.79.26-3.63.48-5.4-1.41,1.05-2.7,2.07-3.93,2.91.39-.78.78-1.57,1.16-2.32.38-.75.75-1.46,1.05-2.13.61-1.34.99-2.5.92-3.29,1.8-7.45-2.19-4.95-6.41-3.78-2.19,1.28-2.73-2.31-5.52.1.59-1.09,1.03-1.9,1.47-2.72.47-.8.94-1.6,1.57-2.67-.5-.44-1.29,1.31-2.05,2.87-.73,1.57-1.46,2.93-2.03,1.68,1.49-1.92,2.1-4.63,3.36-6.79-.98-.06-2.18,1.77-3.29,3.46-1.06,1.71-2.04,3.3-2.73,2.74.14-.69,1.44-2.01,2.55-3.3,1.13-1.28,2-2.55,1.17-3.3-.33-.3-1.61,1.89-2.25,2.98,1.59-3.56,2.42-6.57,2.29-8.02-.15-1.45-1.54-1.45-4.35,1.15.62-1.1,1.63-2.3,2.6-3.52.97-1.23,1.91-2.49,2.48-3.72-.01,0-.03,0-.04,0-.75,1.11-2.33,2.86-2.99,3.91.82-1.29,1.64-2.58,2.46-3.87-.38.04-.78.12-1.18.21-.82.84-1.6,1.72-2.24,2.73.55-.86,1.1-1.72,1.65-2.59-1,.28-2.04.69-3.09,1.2-1.56,1.21-3.23,2.34-4.59,3.41-1.38,1.06-2.52,2.03-3.02,2.9-8.54,13.82-15.12,28.44-20.3,42.81Z"/>
    <path class="cls-5" d="M718.65,219.05c.75-.3,1.09-1.5,2.04-.31,2.63,3.91,1.65,8.43,4.26,12.35.44-.08.88-.15,1.33-.23.96,3.51,1.83,7.21,2.8,10.96,3,6.36,6.12,12.64,9.27,18.87.37-.36.73-.61,1.17-.04,1.47,2.52,2.65,6.39,4.16,10.27.31.54.62,1.07.92,1.6.45.32.91.26,1.2.22.69,1.75,1.23,3.34,1.71,4.82,10.34,17.81,21.05,35.87,32.15,55.74,2.86,4,5.73,8,7.93,12.09,2.95,6.17,5.27,14.6,7.51,20.86,3.95-2.61,11.8,11.79,15.02,7.12,1.49,4.19,3.65,10.51,5,10.38,4.01-.39,9.48,1.24,15.75,11.59,2.1,4.18,2.98,11.45,4.29,12.72,2.06,2,.54-6.6,2.6-4.6-5.18-16.51-11.19-32.38-17.44-48.19-6.31-15.78-12.89-31.49-19.38-47.63-1.56-2.56-4.72-9.07-8.62-17.71-3.95-8.62-8.71-19.35-13.59-30.31-9.72-21.95-19.96-44.85-23.76-54.38-.28-.56-.55-1.12-.82-1.67-2.21-5.14-4.78-10.78-7.54-16.09-2.77-5.31-5.66-10.32-8.45-14.24-2.83-3.47-5.91-6.89-8.93-10.31.18,2.17.3,4.2.32,6-1.82-4.08-3.62-8.16-5.12-9.35-5.89-7.71-5.64-1.86-6.9,2.77-.11,2.95-3.53.66-3.05,4.97-1.21-2.69-1.82-4.04-3.04-6.75-1.32.25,4.54,7.93,1.72,7-.76-2.79-2.88-5.31-4.09-8.01-1.15,1.69,3.82,9.52,2.04,9.86-1.03-1.27-1.44-8.51-3.64-8.09-.44.09.78,2.78,1.38,4.13-4.54-7.91-8.57-11.52-7.12-3.02-1.19-2.62-2.11-6.69-3.7-9.3-.01,0-.01.02-.02.04.59,1.4,1.32,3.96,1.9,5.23-.71-1.57-1.42-3.15-2.14-4.72-.16.38-.3.79-.43,1.21.32,1.28.68,2.54,1.24,3.77-.47-1.04-.94-2.09-1.42-3.13-.27,1.08-.46,2.27-.56,3.52.5,4.29.33,8.7,1.24,10.71,6.72,16.53,13.62,33.02,20.81,49.28Z"/>
    <path class="cls-5" d="M724.7,324.43c-.18-.79-.78-1.47-.24-1.99,1.78-1.23,4.01,1,5.79-.23-.06-.43-.12-.87-.17-1.3,1.66.16,3.42.47,5.18.67,2.93-.93,5.82-1.96,8.67-3.12-.19-.44-.33-.86-.08-1.1,1.14-.64,2.96-.62,4.75-.93.24-.14.48-.28.72-.41.13-.32.07-.78.04-1.06.81-.15,1.55-.21,2.24-.24,8.03-4.65,16.08-9.77,24.88-15.03,1.72-1.67,3.45-3.34,5.25-4.36,2.75-1.2,6.63-1.29,9.47-1.84-1.54-4.37,4.74-8.26,2.25-12.45,1.89-.37,4.73-.92,4.56-2.22-.51-3.9-.16-8.64,4.23-12.16,1.81-1.02,5.19-.16,5.68-1.1.77-1.49-3.18-2.05-2.41-3.54-14.77,2.22-28.26,7.32-42.79,10.9-4.45,3.22-37.59,12.39-46.38,13.65-.26.08-.51.16-.76.25-4.74.92-10.33,2.67-13.86,5.36-1.55,1.5-3.08,3.24-4.61,4.94,1.04.52,2.01,1.07,2.88,1.62-1.89.37-3.79.74-4.3,1.72-3.5,2.91-.69,4.58,1.6,7.25,1.43,1.06.45,3.47,2.52,4.41-1.26.25-1.89.37-3.16.61.17,1.3,3.68-1.6,3.33.69-1.32-.19-2.47.92-3.73,1.17.86,1.61,4.47-.42,4.7,1.31-.57.56-4.07-1.43-3.79.74.06.44,1.32.19,1.95.07-3.67,1.6-5.28,4.14-1.21,5.57-1.23.24-3.17-.23-4.38.38,0,.01.01.02.02.03.66-.09,1.87.07,2.47-.05-.74.14-1.48.29-2.22.43.19.27.39.53.6.79.61.12,1.21.2,1.78.09-.49.09-.98.19-1.47.29.53.6,1.12,1.16,1.73,1.66,2.07.93,4.22,2.52,5.16,2.33,7.79-.88,15.54-2.05,23.11-3.79Z"/>
  </g>
  <g>
    <path class="cls-13" d="M817.95,203.11c.81-.03,1.56-.83,2.02.29,1.03,3.58-1.47,6.69-.44,10.27.44.05.88.11,1.32.17-.35,2.85-.87,5.83-1.26,8.86.59,5.49,1.29,10.95,2.12,16.37.47-.18.9-.28,1.11.26.51,2.24.28,5.42.38,8.68.11.48.22.95.33,1.42.31.35.77.41,1.06.45.06,1.47.03,2.79-.02,4.02,3.72,15.8,7.91,31.81,12.16,49.18,1.47,3.63,2.94,7.27,3.75,10.81.88,5.27.52,12.11.75,17.3,4.54-1.13,7.71,11.33,12.18,8.48.15,3.46.37,8.65,1.69,8.82,3.96.52,8.65,2.85,11.66,11.85.81,3.55-.44,9.17.45,10.38,1.4,1.9,2.42-4.85,3.81-2.95-.52-26.76-4.06-52.31-5.97-79.15-2.7-8.99-8.05-70.55-8.29-86.44-.05-.48-.1-.96-.16-1.43-.37-8.65-1.48-19.11-3.76-26.3-1.32-3.27-2.89-6.59-4.4-9.89-.64,1.63-1.3,3.15-1.95,4.47-.15-3.46-.3-6.92-1.23-8.19-2.5-7.21-4.5-2.88-7.43.18-1.22,2.13-3.52-.47-4.69,2.82-.1-2.3-.15-3.45-.25-5.77-1.32-.17,1.18,7.04-1.07,5.6.34-2.25-.64-4.67-.74-6.98-1.71.92-.09,8.02-1.85,7.79-.49-1.21,1.9-6.63-.3-6.92-.44-.06-.34,2.25-.29,3.4-1.18-7.04-3.53-10.79-5.43-4.15-.1-2.25.59-5.49.12-7.84-.01,0-.02.01-.03.02.01,1.19-.29,3.27-.24,4.36-.06-1.35-.12-2.7-.18-4.05-.29.23-.57.5-.85.77-.19,1.03-.34,2.05-.29,3.1-.04-.89-.08-1.79-.12-2.69-.66.72-1.29,1.54-1.86,2.43-1.17,3.29-3,6.49-2.93,8.22-.02,14.01.26,28.05,1.12,41.98Z"/>
    <path class="cls-13" d="M877.7,170.81c.11-.8-.55-1.7.64-1.92.93-.07,1.8.06,2.63.29.8.28,1.55.67,2.29,1.04l1.11.55c.37.2.74.39,1.12.55.76.33,1.57.5,2.47.57.2-.39.39-.79.59-1.18,1.26.68,2.54,1.32,3.76,2.15.61.39,1.23.78,1.85,1.18.6.42,1.2.85,1.8,1.28,4.95,1.89,9.66,4.29,13.95,7.17.19-.46.41-.85.93-.65.48.28.97.63,1.47,1.02.5.4.95.9,1.44,1.41,1.02.99,1.91,2.2,2.92,3.34.38.26.72.56,1.05.85.43.08.84-.15,1.09-.29.43.55.82,1.08,1.19,1.59.31.54.6,1.06.88,1.55l1.03.99c.33.34.62.7.94,1.05.61.71,1.33,1.39,1.86,2.15.57.75,1.2,1.5,1.75,2.27l.81,1.16.76,1.2c2.01,3.23,3.61,6.8,4.64,10.52.49,1.86.85,3.75,1.04,5.66.18,1.91.15,3.82-.05,5.73-.36,3.79-1.81,7.68-4.24,11.58-.85,1.82-1.87,3.66-3.09,5.39-1.25,1.71-2.64,3.36-4.24,4.74-2.43,1.95-5.59,3.71-8.9,5.16-3.31,1.46-6.76,2.69-9.69,3.76,1.31,1.97-1.44,4.91-4.21,7.66-2.74,2.72-5.48,5.27-3.24,7.06-4.41,1.23-11.13,2.53-11.25,3.83-.15,2-.88,4.35-3.2,6.65-2.31,2.33-6.23,4.66-12.75,6.34-1.28.24-2.75.32-4.26.31-1.5.01-3.05-.09-4.48-.2-2.86-.19-5.29-.52-6.22-.12-.65.29-.6.62-.22.97.39.35,1.26.71,2.1,1.07,1.68.72,3.41,1.43,1.93,2.04,19.79.82,39.28-3.06,57.22-10.58,2.24-.96,4.47-1.94,6.66-3.01,2.2-1.03,4.46-2.23,6.68-3.45,4.47-2.51,8.94-5.38,13.32-8.85,4.36-3.51,8.66-7.58,12.48-12.54,3.79-4.96,7.14-10.76,9.26-17.14.51-2.22,1.37-6,1.85-10.88.47-4.88.45-10.84-.56-17.21-.51-3.18-1.26-6.46-2.25-9.79-1.02-3.31-2.28-6.67-3.82-10-3.13-6.6-7.17-12.99-12.05-18.73-4.86-5.74-10.44-10.79-16.25-14.99-5.81-4.21-11.84-7.57-17.61-10.19-5.78-2.59-11.31-4.4-16.13-5.74-2.43-.6-4.65-1.21-6.69-1.57-2.03-.41-3.82-.78-5.31-.99-.74-.07-1.47-.14-2.2-.21-6.57-.86-13.9-.96-20.79-.16-6.9.78-13.33,2.43-18.32,4.46-4.54,2.1-8.83,4.79-12.94,7.5,2.34.01,4.52.13,6.41.34-4.61,1.27-9.14,2.8-10.53,4.26-4.34,2.75-4.82,4.24-3.77,5.08.53.43,1.46.72,2.55,1.02,1.09.31,2.33.61,3.47,1,1.48.15,1.56,1.05,1.84,1.89.27.84.71,1.58,2.83,1.57-1.37.44-2.38.82-3.39,1.2-1.01.39-2.04.72-3.37,1.29.05.33.57.24,1.3-.04.74-.26,1.7-.7,2.62-1.1,1.83-.83,3.56-1.33,2.98,0-2.76.47-5.32,2.37-7.94,3.46.82.62,3.11-.25,5.28-.9,2.16-.71,4.18-1.22,4.27-.34-.32.22-.99.36-1.82.47-.82.13-1.79.27-2.72.43-1.87.31-3.52.91-3.33,2,.08.44,2.66-.62,3.98-1.08-3.87,1.89-6.58,3.95-7.32,5.3-.75,1.36.45,1.98,4.36,1.49-1.22.48-2.73.98-4.28,1.47-1.53.53-3.04,1.16-4.22,1.92,0,0,.02.01.04.02,1.28-.56,3.59-1.3,4.77-1.8-1.44.63-2.84,1.36-4.27,2.04.36.16.75.29,1.16.42,1.17-.29,2.29-.66,3.4-1.16-.95.41-1.87.89-2.81,1.34,1.02.27,2.11.47,3.26.61,3.91-.33,7.81.19,9.58-.45,14.58-4.81,29.48-6.72,43.1-5.14Z"/>
  </g>
  <g>
    <path class="cls-6" d="M959.63,180.39c.79.05,1.61-.67,1.94.5.64,3.66-2.12,6.5-1.49,10.16.43.1.85.2,1.27.3-.64,2.8-1.45,5.71-2.15,8.69,0,5.52.13,11.02.39,16.5.47-.13.91-.18,1.06.37.27,2.28-.28,5.42-.52,8.68.06.48.12.97.17,1.45.27.38.71.49.99.56-.09,1.47-.26,2.78-.43,3.99,2.01,16.1,4.45,32.45,6.82,50.17,1.06,3.77,2.12,7.53,2.55,11.14.32,5.34-.74,12.1-1.06,17.28,4.56-.65,6.37,12.07,11.04,9.69-.21,3.45-.53,8.64.75,8.95,3.82.93,8.17,3.73,10.19,12.99.42,3.61-1.37,9.08-.64,10.37,1.17,2.04,2.86-4.57,4.03-2.54,2.26-26.67,1.42-52.44,2.33-79.34-1.71-9.22-.59-71,.81-86.83,0-.48,0-.96,0-1.44.53-8.64.53-19.16-.96-26.54-.96-3.39-2.14-6.85-3.29-10.29-.8,1.56-1.59,3-2.37,4.24.21-3.46.42-6.92-.36-8.27-1.7-7.43-4.1-3.33-7.28-.6-1.42,2-3.4-.83-4.88,2.32.14-2.3.21-3.45.35-5.76-1.27-.31.43,7.12-1.63,5.46.56-2.2-.14-4.71,0-7.01-1.77.74-.92,7.96-2.62,7.55-.36-1.26,2.54-6.4.42-6.92-.43-.1-.57,2.2-.64,3.35-.43-7.12-2.34-11.1-4.88-4.69.14-2.25,1.15-5.4.93-7.79-.01,0-.02.01-.04.02-.11,1.18-.62,3.22-.68,4.31.08-1.35.16-2.7.25-4.05-.31.2-.61.43-.91.68-.3,1-.54,2.01-.61,3.06.06-.89.11-1.79.16-2.69-.72.65-1.42,1.4-2.07,2.23-1.48,3.15-3.61,6.15-3.71,7.87-1.47,13.93-2.64,27.92-3.23,41.87Z"/>
    <path class="cls-6" d="M1022.16,154.15c.19-.77-.38-1.72.84-1.81.94.03,1.79.25,2.59.56.77.36,1.48.82,2.18,1.27l1.05.66c.35.24.7.46,1.07.66.73.41,1.52.67,2.41.83.23-.36.47-.73.7-1.1,1.19.81,2.4,1.58,3.54,2.53.57.45,1.15.9,1.73,1.36.55.48,1.11.97,1.67,1.46,4.75,2.41,9.2,5.31,13.18,8.65.23-.43.49-.79.98-.54.45.33.9.73,1.36,1.18.46.45.85,1,1.3,1.56.91,1.09,1.69,2.4,2.58,3.64.35.3.65.64.96.97.42.13.84-.05,1.1-.16.37.59.71,1.16,1.02,1.71.25.57.49,1.12.72,1.64l.92,1.1c.29.38.55.77.83,1.15.53.78,1.17,1.53,1.63,2.36.48.81,1.04,1.63,1.51,2.46l.68,1.24.63,1.28c1.66,3.44,2.87,7.19,3.49,11.02.29,1.91.44,3.84.42,5.77-.03,1.93-.27,3.83-.68,5.72-.78,3.75-2.65,7.48-5.5,11.11-1.04,1.72-2.26,3.43-3.67,5.02-1.43,1.56-2.99,3.05-4.73,4.26-2.63,1.68-5.96,3.1-9.4,4.21-3.44,1.12-7.01,1.98-10.04,2.74,1.09,2.06-1.97,4.67-5.01,7.08-3.02,2.4-6.01,4.62-3.98,6.59-4.51.76-11.33,1.36-11.58,2.61-.36,1.94-1.33,4.17-3.88,6.18-2.54,2.05-6.67,3.93-13.32,4.89-1.3.11-2.76.03-4.26-.14-1.49-.14-3.01-.4-4.42-.66-2.82-.48-5.2-1.06-6.16-.77-.67.22-.66.55-.32.93.35.38,1.18.83,1.97,1.27,1.6.88,3.24,1.76,1.71,2.2,19.55,2.86,39.29,1.04,57.88-4.54,2.32-.72,4.63-1.46,6.92-2.29,2.29-.79,4.65-1.74,6.99-2.72,4.69-2.02,9.43-4.4,14.13-7.38,4.69-3.02,9.36-6.6,13.66-11.12,4.27-4.51,8.18-9.9,10.94-15.99.73-2.14,1.98-5.79,2.97-10.57.97-4.78,1.58-10.67,1.24-17.08-.17-3.2-.58-6.53-1.21-9.93-.66-3.39-1.57-6.84-2.74-10.3-2.41-6.86-5.75-13.62-9.99-19.81-4.21-6.2-9.23-11.79-14.55-16.55-5.32-4.78-10.95-8.74-16.4-11.93-5.46-3.17-10.76-5.54-15.4-7.37-2.35-.85-4.48-1.68-6.47-2.25-1.97-.62-3.71-1.17-5.17-1.53-.72-.15-1.44-.29-2.16-.44-6.43-1.53-13.69-2.4-20.61-2.33-6.92.05-13.48,1.01-18.65,2.49-4.72,1.6-9.27,3.8-13.64,6.04,2.32.25,4.47.58,6.32.97-4.71.78-9.37,1.83-10.9,3.12-4.6,2.27-5.24,3.68-4.29,4.6.48.48,1.37.85,2.42,1.25,1.05.41,2.24.82,3.33,1.32,1.45.3,1.44,1.19,1.62,2.03.18.85.54,1.62,2.64,1.82-1.41.29-2.45.57-3.5.84-1.04.28-2.11.51-3.49.93.02.33.54.29,1.3.09.76-.18,1.76-.52,2.72-.82,1.91-.63,3.68-.95,2.96.29-2.79.19-5.54,1.79-8.26,2.61.74.69,3.11.06,5.35-.36,2.22-.49,4.29-.78,4.28.09-.34.19-1.02.25-1.86.28-.83.05-1.81.09-2.75.16-1.89.12-3.59.54-3.53,1.64.03.44,2.71-.35,4.07-.66-4.05,1.47-6.97,3.23-7.85,4.48-.89,1.26.23,1.99,4.17,1.89-1.26.35-2.82.69-4.41,1.03-1.58.37-3.15.85-4.4,1.48,0,.01.02.01.03.02,1.33-.42,3.71-.93,4.93-1.31-1.5.48-2.97,1.06-4.46,1.59.34.19.72.36,1.1.53,1.19-.17,2.35-.43,3.51-.8-.99.31-1.95.7-2.94,1.04.98.37,2.05.67,3.17.91,3.92.05,7.74.95,9.57.49,15.03-3.29,30.11-3.66,43.55-.65Z"/>
  </g>
  <g>
    <path class="cls-10" d="M1164.01,120.11c-.06.81,1.73,1.63-1.07,1.98-4.4.33-8.36-.08-12.34-.56-1.99-.24-3.98-.46-6.02-.55-1.02-.05-2.06-.07-3.11-.05-.53,0-1.06.03-1.6.06-.91.05-1.83.1-2.76.15-.34.43-.7.88-1.06,1.32-5.64-.1-11.44-.11-17.5-.18-3.06-.03-6.14-.05-9.25-.08-3.14.02-6.3.05-9.49.08,0,1.02.01,2.13.02,3.23l.44,6.34.05.79.03.39v.2c.01.06-.1.02-.15.03l-1.55.04-3.09.07c-4.11.1-8.21.2-12.3.3l-.76.02h-.1s-.01,0-.01,0c-16.1-7.76,21.91,10.57,18,8.68h0s0-.02,0-.02l.04-.05.07-.1c.09-.14.22-.27.27-.41l.02-.87c.02-.49.06-.82.13-.86.06-.06.15.08.25.55.03.1.05.21.08.38l.09.46.21,1.28c.24,1.61.54,3.87.88,6.87.32-.36.63-.46.96,1.36.26,1.91.5,4.16.75,6.74.06.65.11,1.31.17,1.98l.02.25c-.07.09-.24.18-.36.26l-.79.53c-.53.36-1.06.72-1.59,1.08l-.4.27-.2.14c-.05.05-.18.09-.13.14l.13.59c.09.39.17.79.26,1.19l.13.6c.05.18.06.53.1.77l.02.41c.12,2.22-.03,5.24-.21,8.97.04,1.13.08,2.26.12,3.37.25.88.7,1.12.98,1.27-.15,3.46-.4,6.53-.64,9.37.55,18.82.87,37.83.84,57.34-.02,9.76-.12,19.64-.33,29.68-.06,2.51-.12,5.03-.18,7.57-.04,1.27-.07,2.53-.11,3.81l-.06,1.98-.16,2.87c-.08,3.68-.16,7.37-.25,11.08.16,3.52.84,6.74,2.21,9.76.66,1.22,1.46,2.4,2.46,3.43.99,1.04,2.21,1.91,3.5,2.52,2.62,1.22,5.35,1.43,8.17,1.48,2.83.05,5.83-.2,8.73-.54,2.74-.27,5.46-.54,8.16-.81,12.6-.94,28.73-.64,41.04-.92-2.05-4.55,27.87-7.84,21.72-12.29,8.2-.18,20.52-.46,21.11-1.78,1.77-3.98,7.93-8.7,29.63-11.81,8.51-.85,21.65.35,24.63-.55,4.69-1.42-11.15-2.37-6.46-3.79-31.7.39-62.79,1.54-93.92,2.86-7.78.34-15.57.68-23.37,1.01-3.9.17-7.8.34-11.71.51l-2.93.13-1.47.06h-.16s0,0,0,0h0s0,.01,0,.01c-.02.02-.05.04-.09.05-.07.03-.15.08-.25.08-.09,0-.13-.09-.15-.16-.01-.07-.02-.19-.02-.25.39-3.95.78-7.91,1.18-11.88.02-6.96,1.35-26.38,2.5-50.94.58-12.28,1.15-25.83,1.54-39.75.09-3.48.19-6.98.28-10.49l.12-5.38c.03-1.9.04-3.92-.03-6.08-.03-1.07-.08-2.18-.17-3.33-.04-.58-.08-1.14-.14-1.74l-.09-.89c0-.09,0,.09,0,.08v-.04c-.04-.23-.1-.46-.16-.68-.14-.45-.36-.89-.67-1.26-.28-.33-.64-.61-1.04-.77-.2-.08-.41-.13-.62-.15-.09-.01-.25,0-.27,0l.3-.02c.8-.05,1.59-.1,2.34-.12.61-.02,1.19-.02,1.73-.02.27,0,.53,0,.78,0h.2s.1,0,.1,0h.31c.86,0,1.71-.02,2.54-.02,6.65-.1,12.23.03,16.43.09,1.12-.01,2.24-.03,3.35-.04,10.08.14,21.22.38,32,.47,10.77.17,21.17.16,29.75-.09,3.95-.29,7.94-.59,11.94-.88,4.01-.32,8.04-.61,12.06-.86-3.62-1.1-6.97-2.18-9.88-3.15,8.09.77,16.16,1.65,19.35,1.17,8.71-.09,10.71-.91,9.73-2.25-.98-1.36-4.94-3.13-8.12-5.05-4.67-1.87,2.06-3.3-5.35-5.46,5.44.64,8.16.96,13.63,1.6.77-1.25-16.87-1.12-12.87-2.84,5.2,1.06,11.18.82,16.62,1.57-1.68-2.04-18.85-2.72-17.84-4.33,3.01-.12,15.13,3.94,16.42,1.94.26-.43-5.21-1.1-7.95-1.41,16.92,1.18,26.51.34,11.35-3.88,5.37.66,12.82,2.58,18.52,3.03,0-.01-.03-.03-.04-.04-2.82-.44-7.63-1.52-10.24-1.89,3.2.46,6.42.92,9.63,1.37-.46-.37-1-.74-1.56-1.12-2.37-.58-4.76-1.11-7.26-1.47,2.13.3,4.26.61,6.41.91-1.51-.91-3.26-1.83-5.21-2.73-3.73-1.22-7.37-2.48-10.61-3.57-3.23-1.09-6.05-1.93-8.13-2.17-33.46-4.64-67.39-7.27-101.19-7.58Z"/>
    <path class="cls-10" d="M1158.52,239.75c.06-.81-.26-1.63.33-1.97,1.83-.66,3.11,2.12,4.94,1.46.07-.43.13-.86.2-1.3,1.35.63,2.75,1.44,4.19,2.14,2.72-.04,5.43-.19,8.14-.48-.04-.48-.05-.92.23-1.08,1.13-.29,2.65.26,4.25.49.24-.06.48-.13.72-.19.2-.27.27-.73.32-1.01.72.09,1.36.24,1.95.42,8-2.12,16.15-4.69,24.97-7.18,1.9-1.1,3.79-2.2,5.59-2.65,2.64-.35,5.92.69,8.46.98-.13-4.63,6.2-6.53,5.23-11.26,1.69.2,4.23.49,4.44-.8.61-3.88,2.17-8.31,6.81-10.41,1.8-.45,4.41,1.35,5.08.59,1.05-1.2-2.13-2.88-1.08-4.08-13.03-2.15-25.75-1.17-38.95-1.95-4.61,1.79-34.96.98-42.7-.36-.24,0-.47,0-.71.02-4.23-.49-9.41-.43-13.1,1.12-1.71.99-3.46,2.21-5.2,3.39.73.8,1.41,1.6,1.99,2.39-1.69-.2-3.39-.39-4.09.4-3.73,1.77-1.81,4.19-.59,7.4.92,1.43-.55,3.46.94,4.94-1.13-.13-1.69-.19-2.82-.33-.2,1.3,3.52-.47,2.62,1.62-1.06-.56-2.33.17-3.45.04.29,1.79,3.88.89,3.61,2.62-.63.37-3.04-2.55-3.39-.39-.07.43,1.06.56,1.62.63-3.52.47-5.56,2.43-2.51,4.98-1.1-.13-2.61-1.14-3.79-.9,0,.01,0,.02,0,.04.58.11,1.56.61,2.09.67-.66-.08-1.32-.15-1.98-.23.09.31.19.62.3.93.48.3.96.54,1.48.6-.44-.05-.88-.1-1.32-.15.29.73.63,1.43,1.01,2.09,1.49,1.49,2.88,3.63,3.72,3.73,6.79,1.42,13.63,2.53,20.47,3.06Z"/>
  </g>
  <path class="cls-16" d="M1277.3,186.15c.79.17,1.77-.8,1.86.97-.12,5.49-3.5,9.36-3.62,14.85.4.2.81.4,1.22.6-1.23,4.06-2.66,8.27-3.99,12.59-1.15,8.16-2.17,16.3-3.05,24.43.5-.13.95-.16,1,.67-.21,3.41-1.42,7.97-2.34,12.76-.04.72-.08,1.45-.13,2.16.19.59.62.81.88.94-.4,2.17-.84,4.08-1.27,5.85-.31,6.01-.62,12.04-.94,18.12-.07,1.52-.15,3.05-.22,4.57l-.12,2.37-.37,3.88c-.22,2.56-.53,5.11-.63,7.59-.08,2.48.02,4.85.37,7.04.34,2.21.9,4.29,1.76,6.3.85,2,2.07,3.93,3.65,5.6,1.6,1.65,3.51,2.97,5.53,3.88,2.03.92,4.17,1.5,6.42,1.86,2.25.36,4.64.5,7.1.49,2.46-.02,4.94-.17,7.35-.26l1.81-.08.9-.04c.32-.01.44-.03.67-.05.81-.07,1.63-.13,2.45-.2,1.64-.13,3.28-.26,4.93-.39,5.61-1.01,11.21-2.02,16.59-2.39,7.96-.23,18.07.98,25.81,1.39-1.03-4.65,17.93-6.25,14.32-11.05,5.16.28,12.9.7,13.35-.59,1.33-3.87,5.46-8.24,19.26-10.12,5.39-.37,13.57,1.57,15.49.84,3.02-1.15-6.86-3-3.84-4.15-19.92-1.4-39.49-2-59.1-2.44-16.18-.35-32.39-.7-48.96-1.05-.18.24-.47.5-.87.57-.42.06-.69-.21-.77-.63-.05-.24-.11-.43-.12-.84.42-3,.86-6.12,1.31-9.34.94-6.42,1.94-13.2,2.94-20.07,4.12-27.43,8.81-56.03,11.17-67.64.1-.71.19-1.42.29-2.13,2.34-12.71,4.53-28.26,4.57-39.34-.26-5.13-.74-10.37-1.17-15.59-1.13,2.21-2.24,4.24-3.28,5.99.93-5.09,1.87-10.17,1.37-12.27-.17-11.18-3.45-5.4-7.24-1.73-1.85,2.78-3.26-1.62-5.42,2.86.62-3.38.93-5.08,1.56-8.47-1.22-.6-1.06,10.58-2.78,7.87,1.03-3.19.84-6.98,1.46-10.37-1.94.89-2.59,11.66-4.22,10.86-.1-1.9,3.91-9.16,1.87-10.17-.41-.2-1.03,3.19-1.34,4.88,1.06-10.57-.04-16.67-3.95-7.5.61-3.31,2.29-7.84,2.57-11.4-.01,0-.03.02-.04.02-.36,1.74-1.3,4.68-1.59,6.29.36-1.98.73-3.97,1.09-5.95-.35.26-.71.57-1.07.9-.51,1.44-.97,2.9-1.25,4.45.24-1.31.48-2.63.73-3.95-.86.88-1.72,1.9-2.56,3.05-2.16,4.48-4.93,8.66-5.39,11.2-4.39,20.41-8.5,40.96-12.01,61.5Z"/>
  <g>
    <path class="cls-8" d="M1487.83,199.14c.77.24,1.74-.21,1.8.94-.18,3.49-3.56,5.36-3.75,8.85.39.2.79.4,1.19.6-1.26,2.38-2.71,4.81-4.1,7.32-1.27,5-2.41,10.01-3.46,15.02.49,0,.93.07.96.61-.28,2.14-1.56,4.83-2.57,7.71-.06.45-.12.91-.18,1.35.17.41.58.63.83.77-.45,1.31-.92,2.44-1.39,3.49-1.92,15.08-3.62,30.51-5.94,47.17.04,3.7.08,7.4-.45,10.78-1.1,4.91-3.96,10.68-5.67,15.25,4.61.77,2.87,12.78,8.05,12.05-1.15,3.06-2.92,7.63-1.77,8.3,3.43,2,6.89,5.88,6.19,14.88-.63,3.4-3.94,7.78-3.6,9.18.54,2.21,4.08-3.23,4.63-1.03,9.91-23.44,16.2-47.17,24.09-71.48.37-4.46,4.82-20.72,9.58-37.7,4.8-16.97,9.89-34.68,12.39-41.8l.31-1.33c2.49-7.84,4.8-17.56,4.94-24.73-.22-3.36-.65-6.83-1.05-10.28-1.12,1.25-2.22,2.39-3.25,3.36.95-3.14,1.9-6.28,1.41-7.71-.14-7.25-3.37-4.01-7.09-2.23-1.82,1.51-3.19-1.54-5.32,1,.62-2.08.93-3.12,1.55-5.21-1.19-.57-1.06,6.64-2.74,4.63,1.03-1.89.84-4.36,1.46-6.43-1.9.28-2.55,7.09-4.16,6.32-.08-1.23,3.85-5.28,1.86-6.24-.4-.19-1.01,1.89-1.32,2.93,1.05-6.62-.03-10.69-3.86-5.42.6-2.02,2.25-4.67,2.53-6.91-.01,0-.02,0-.04,0-.35,1.06-1.28,2.8-1.57,3.79.36-1.21.72-2.43,1.08-3.64-.35.12-.69.26-1.05.41-.5.85-.95,1.71-1.23,2.66.24-.8.48-1.61.72-2.42-.84.43-1.69.96-2.51,1.56-2.12,2.54-4.83,4.78-5.29,6.33-4.35,12.35-8.49,24.79-12.18,37.29Z"/>
    <path class="cls-8" d="M1435.42,257.96c.24-.77-.2-1.73.93-1.81,1.72.08,3.05.95,4.39,1.82,1.32.85,2.65,1.7,4.36,1.74l.56-1.2c2.32,1.16,4.73,2.52,7.17,3.74,4.84.99,9.54,1.78,14.21,2.46,0-.49.04-.93.53-.99,1.97.12,4.47,1.21,7.1,2.03.41.03.83.06,1.23.08.37-.2.57-.62.69-.88,1.2.35,2.24.75,3.2,1.16,13.75,1,27.91,2.11,43.19,4.28,3.42-.09,6.86-.13,9.96.43,4.49,1.11,9.67,4.02,13.77,5.81,1.05-4.57,12.12-2.49,11.88-7.62,2.77,1.28,6.92,3.18,7.65,2.1,1.1-1.65,2.64-3.28,4.97-4.35,2.33-1.08,5.45-1.58,9.7-.94,3.18.82,6.97,4.44,8.34,4.19,2.16-.38-2.62-4.27-.47-4.65-21.33-11.55-43.7-18.58-66.75-26.21-2.13-.16-7.05-1.3-13.48-2.88-6.42-1.56-14.38-3.49-22.51-5.47-8.18-1.95-16.39-3.75-23.19-5.42-6.81-1.67-12.31-3.2-15.36-4.31l-1.16-.26c-6.81-2.14-14.68-4.45-20.56-5.03-2.83.02-5.76.1-8.73.09.77,1.22,1.51,2.39,2.12,3.51-1.23-.65-2.49-1.24-3.54-1.73-1.06-.48-1.99-.76-2.66-.63-1.55-.23-2.56-.26-3.25-.03-.69.23-1.03.69-1.17,1.31-.26,1.24.3,3.2.65,5.12.92,2.03-2.22,2.77-.35,5.32-1.79-1.02-2.7-1.48-4.44-2.6-.42.49,1.01,1.21,2.33,1.79,1.3.61,2.43,1.24,1.3,1.86-.77-.68-1.74-1.11-2.76-1.49-.99-.42-2.02-.81-2.91-1.37-.13.93,1.35,2.03,2.76,2.98,1.42.93,2.74,1.79,2.2,2.49-.6-.09-1.66-1.3-2.71-2.27-1.04-1-2.08-1.8-2.8-.96-.29.33,1.52,1.49,2.45,2.01-1.52-.64-2.91-1.18-4.1-1.49-1.19-.31-2.17-.43-2.82-.34-.66.11-1.01.48-.95,1.16.06.69.55,1.69,1.61,2.97-.46-.29-.95-.65-1.45-1.05-.48-.43-.99-.87-1.49-1.32-1.01-.9-2.05-1.76-3.11-2.27,0,.01,0,.03,0,.04.92.69,2.35,2.15,3.23,2.76-1.08-.75-2.17-1.5-3.25-2.25,0,.37.03.74.07,1.13.68.76,1.4,1.49,2.26,2.08-.73-.5-1.45-1.01-2.18-1.51.16.95.43,1.94.8,2.94.48.73.94,1.5,1.39,2.24.46.73.91,1.43,1.33,2.08.86,1.3,1.66,2.38,2.42,2.84,12,7.76,24.92,13.04,37.4,16.75Z"/>
  </g>
  <g id="right">
    <rect class="cls-1" x="1416.13" y="359.21" width="13.61" height="65.7" transform="translate(454.94 1506.26) rotate(-64.42)"/>
    <path class="cls-21" d="M1449.63,412.37l-3.35,6.99s-18.58-12.73-47.1,40.12c0,0-.27,17.21-13.68,10.8-13.41-6.42-.17-17.43-.17-17.43,23.27-55.36,1.71-61.85,1.71-61.85l3.35-6.99,59.26,28.36Z"/>
    <rect class="cls-12" x="1401.68" y="347.8" width="65.69" height="40.08" transform="translate(299.42 -583.32) rotate(25.58)"/>
    <path class="cls-25" d="M1457.71,394.16c-3.72.75-7.78.02-10.88-2.2-3.21-2.27-4.26-5.82-5.34-9.4-.51-1.66-1.05-3.37-2.12-4.74-1.47-1.91-3.73-2.41-6.01-2.64-4.15-.42-8.47-1.01-11.35-4.4-2.74-3.22-2.14-7.61-1.66-11.49.46-3.69.59-8.49-3.36-10.31-3.4-1.57-7.54-.78-10.72-2.91-3.3-2.2-3.15-6.43-1.69-9.69,1.77-4.01,5.16-6.72,9.62-6.9,4.61-.2,9.02,1.82,12.79,4.27,5.59,3.61,10.52,8.89,16.33,12.32,3.8,1.65,7.89,2.35,12.05,2.89,4.86.62,9.82,1.19,14.33,3.26,3.79,1.74,7.79,4.86,8.35,9.28.27,2.08-.25,4.16-.84,6.13-.74,2.46-1.51,4.91-2.35,7.36-2.83,8.17-7.9,17.31-17.17,19.19Z"/>
    <path class="cls-9" d="M1451.97,831.27c.53,7.42,1.16,14.82,1.89,22.22-7.53,1.32-15.38.96-22.75-1.08,6.06-7.86,13.16-14.83,20.86-21.14Z"/>
    <path class="cls-26" d="M1453.86,853.49c-.73-7.4-1.36-14.8-1.89-22.22,9.06-7.45,18.94-13.99,28.96-20.05,15.08-9.14,30.91-17.47,48.05-21.56,17.15-4.09,35.88-3.61,51.62,4.32,6.82,3.43,12.9,8.15,18.61,13.2,19.16,16.9,34.59,37.7,53.01,55.28-.7,7.17-1.64,14.32-2.81,21.44,1.04,2.95,1.84,6.01,2.35,9.11-29.88,2.53-58.82,12.25-88.23,18.66-36.24,7.9-73.34,10.76-110.38,13.29,1.61-11.29,3.38-22.55,5.35-33.79-1.84-12.52-3.38-25.1-4.64-37.68Z"/>
    <path class="cls-26" d="M1373.36,404.73c-1.08-1.9-2.09-3.86-3.06-5.81-.23-.48-.48-1.03-.36-1.56.12-.48.51-.84.89-1.16,1.77-1.44,3.76-2.65,5.86-3.56,1.97-.86,4.19-1.46,6.26-.91,2.22.58,3.89,2.33,5.43,4.04,10.89,11.92,20,22.08,30.89,34l.26.02,3.76-3.52c3.81,4.06,6.29,6.96,9.17,11.71.76,1.26,1.42,2.65,1.39,4.12-.05,1.09-.46,2.14-.93,3.11-1.06,2.27-2.38,4.39-3.69,6.51-4.27,6.87-8.54,13.76-12.8,20.63-6.24-1.39-12.73-1.72-19.09-1.21-6.87.55-13.61,2.05-20.17,4.12-4.54-8.21-9.25-16.31-14.19-24.29-3.43-5.58-7.02-11.21-8.63-17.55-.23-.86-.4-1.82-.03-2.63.3-.66.93-1.13,1.52-1.56,1.69-1.23,3.36-2.43,5.05-3.64-.36-1.18-.66-2.37-.89-3.58-.31-1.54-.46-3.28.45-4.54.55-.76,1.37-1.23,2.19-1.67,1.94-1.06,3.87-2.14,5.81-3.2-.1-.76-.15-1.52-.18-2.28-.03-.83-.02-1.71.43-2.38.33-.5.86-.83,1.36-1.16,1.11-.68,2.2-1.37,3.29-2.05Z"/>
    <path class="cls-26" d="M1787.85,989.2c-2.27-.89-4.6-1.94-5.98-3.91-1.14-1.66-1.47-3.76-1.44-5.76.05-2.62.66-5.2,1.31-7.73,1.19-4.62,2.58-9.17,4.06-13.73-2.7-4.01-5.46-7.96-8.28-11.89-1.36,1.84-2.7,3.69-4.04,5.53-.17.23-.35.48-.41.76-.1.36,0,.76.08,1.14,1.89,8.15.45,17.04-3.94,24.17-1.16,1.89-2.58,3.71-4.55,4.7-.7.35-1.59.56-2.2.08-.36-.28-.53-.75-.65-1.19-.81-2.72-1.04-5.58-1.24-8.41-.36-5.31-.63-10.65-.89-15.98-.3-5.68-.58-11.36-.46-17.04.05-2.47.2-4.97.98-7.32,1.75-5.25,6.44-8.86,9.82-13.26,1.87-.41,3.73-.98,5.55-1.57,11.37-3.74,22.42-9.04,31.57-16.69,5.94,14.54,11.89,29.07,17.83,43.61.3.75.61,1.52.53,2.33-.1.99-.79,1.82-1.46,2.58-1.79,2.05-3.59,4.09-5.43,6.11-3.58,6.36-7.22,12.67-10.93,18.96-2.4,4.11-4.83,8.18-7.4,12.19-1.11,1.72-2.25,3.43-3.63,4.93-.53.58-1.09,1.13-1.79,1.44-1.01.45-2.2.36-3.23-.03-1.77-.7-3.06-2.25-3.77-4.04Z"/>
    <path class="cls-25" d="M1460.98,665.64c-9.92,8.51-15.02,25.48-27.7,34.35-7.93-8.79-15.76-17.73-22.93-27.1-8.69-11.37-16.39-23.38-22-36.54-.28-.65-.53-1.31-.79-1.97-5.33-13.08-8.61-26.94-11.42-40.78-.46-2.32-.89-4.67-1.34-6.99-1.95-10.17-3.68-20.38-5.2-30.63-.93-6.19-1.79-12.38-2.53-18.61-.6-4.98-1.14-9.98-1.54-14.98-.5-6.26-.75-12.53-.53-18.81.07-2.09.2-4.21,1.01-6.11,1.03-2.45,3.01-4.22,5.26-5.68.02-.15.02-.3.03-.43,16.37-5.38,32.76-.36,49.16,4.25,0,.08-.02.15-.02.23,4.5,3.48,9.02,6.94,13.54,10.41.98.76,1.99,1.54,2.65,2.58.79,1.23,1.06,2.68,1.31,4.11.84,4.8,1.64,9.6,2.43,14.42,1.08,6.57,2.12,13.15,3.13,19.74.65,4.22,1.32,8.46,1.94,12.7v.02c6.09.45,11.99,3.18,16.99,6.79,2.17,1.56,4.19,3.29,6.16,5.1,3.66,3.36,7.1,7,10.71,10.43,3.59,3.43,7.4,6.62,11.34,9.62.17.12.31.26.48.38,6.72,5.07,13.92,9.49,21.47,13.21.15-.05.3-.1.45-.15,1.92,30.68-30.2,44.82-52.05,60.43Z"/>
    <path class="cls-11" d="M1420.44,495.62c.38-7.29.77-14.58,1.16-21.89-1.71-.55-3.43-1.03-5.17-1.39-6.24-1.39-12.73-1.72-19.09-1.21-6.87.55-13.61,2.05-20.17,4.12-1.66.53-3.31,1.09-4.93,1.69-.31,4.8-.64,9.61-.96,14.41,16.39-5.37,32.77-.36,49.16,4.26Z"/>
    <path class="cls-23" d="M1414.62,544.78c-15.62-1.12-31.97,2.3-45.04,11.22,1.52,10.24,3.24,20.45,5.2,30.62,16.11-7.09,38.04-4.78,54.74-13.69,5.83-4.37,10.38-8.75,15.91-13.12-.61-4.24-1.29-8.46-1.93-12.7-9.52.44-19.38-.75-28.87-2.33Z"/>
    <path class="cls-19" d="M1365.51,522.39c.39,5.01.93,10.01,1.54,14.99.75,6.22,1.61,12.42,2.53,18.62,13.07-8.91,29.42-12.33,45.04-11.22,9.49,1.58,19.35,2.77,28.87,2.33-1.01-6.58-2.06-13.16-3.13-19.73-23.71-10.03-50.43-14.17-74.84-4.99Z"/>
    <path class="cls-22" d="M1445.43,559.83s0-.02,0-.02c-5.52,4.37-10.08,8.75-15.91,13.12-16.7,8.91-38.63,6.6-54.74,13.69.45,2.33.87,4.67,1.35,6.99,2.82,13.84,6.09,27.69,11.43,40.78,22.15-14.79,37.52-35.32,56.87-53.18,6.8-6.04,15.32-7.95,24.15-9.49-1.96-1.8-3.99-3.53-6.15-5.09-5-3.61-10.89-6.34-16.99-6.79Z"/>
    <path class="cls-28" d="M1479.29,582.15c-3.61-3.43-7.05-7.07-10.72-10.44-8.83,1.55-17.35,3.45-24.15,9.49-19.35,17.86-34.71,38.39-56.87,53.18.27.66.51,1.32.79,1.97,5.62,13.15,13.32,25.17,22.01,36.54,4.64-6.55,8.9-13.7,14.2-20.5,16.97-24.04,56.85-33.6,66.08-60.63-3.95-2.99-7.75-6.2-11.34-9.62Z"/>
    <path class="cls-2" d="M1513.03,605.21c-.15.05-.3.1-.44.15-7.55-3.73-14.75-8.15-21.47-13.21-.16-.12-.31-.26-.48-.38-9.23,27.03-49.11,36.59-66.08,60.63-5.29,6.81-9.56,13.95-14.2,20.5,7.16,9.37,15,18.31,22.92,27.09,12.68-8.87,17.78-25.85,27.7-34.35,21.85-15.61,53.97-29.75,52.05-60.43Z"/>
    <path class="cls-11" d="M1666.27,726.9c3.13-20.35,21.06-31.83,31.4-48.41,0,0,0-.01-.01-.02.91-4.01,1.59-8.06,2.05-12.15.22-1.8.35-3.73-.38-5.4-1.09-2.5-3.81-3.81-6.32-4.9-24.55-10.73-49.07-21.46-73.63-32.19-3.01-2.93-6.23-5.63-9.6-8.1-19.47-14.39-44.42-21.41-68.39-18.06-7.24,1.01-14.3,2.88-21.29,5.13-2.37.76-4.72,1.56-7.07,2.4,1.92,30.69-30.2,44.83-52.05,60.43-9.92,8.51-15.02,25.48-27.7,34.35.25.28.51.57.76.85.61,16.85.56,33.74-.17,50.6-.36,8.68-.93,17.38-2.7,25.88-1.51,7.17-3.86,14.12-5.4,21.27-3.91,18.2-2.28,37.53,4.55,54.83.25-.35.5-.68.78-1.01,6.06-7.86,13.16-14.83,20.86-21.14,9.06-7.45,18.94-13.99,28.96-20.05,15.08-9.14,30.91-17.47,48.05-21.56,17.15-4.09,35.88-3.61,51.62,4.32,6.82,3.43,12.9,8.15,18.61,13.2,19.16,16.9,34.59,37.7,53.01,55.28,3.54,3.39,7.2,6.67,11.03,9.77,4.78-15.68,13.33-30.48,14.12-46.84.38-8.01-1.14-15.98-2.35-23.91-.46-3.05-.89-6.09-1.26-9.16.19.24.37.49.57.74-5.91-21.24-11.05-43.7-8.05-66.17Z"/>
    <path class="cls-2" d="M1805.12,889.38c-9.6,13.44-28.96,13.08-43.48,19.62-.1-.36-.17-.75-.25-1.11-7.2-1.62-14.37-3.71-20.02-8.34-5.15-4.24-8.48-10.17-11.44-16.23-.71-1.44-1.41-2.9-2.1-4.34-2.37-4.95-4.85-9.87-7.4-14.74-6.14-11.71-12.78-23.15-19.92-34.29-3.51-5.46-7.12-10.88-10.84-16.19-2.91-4.14-5.86-8.25-8.89-12.28-2.14-2.83-4.27-5.65-6.46-8.43-5.91-21.23-11.04-43.69-8.05-66.16,3.13-20.35,21.06-31.82,31.41-48.41,10.94,14.44,21.59,29.16,31.66,44.24,7.28,10.91,14.25,22,20.83,33.33,6.71,11.56,12.98,23.36,18.73,35.43.43.88.86,1.75,1.27,2.63,3.13,6.72,6.11,14.06,7.19,21.32.08.07.17.15.25.23,6.04,5.5,11.79,11.34,15.48,18.58,2.98,5.84,4.45,12.32,5.74,18.74.07.26.12.51.17.78,2.37,11.8,4.4,23.68,6.13,35.61Z"/>
    <path class="cls-28" d="M1749.06,756.7c.38-.19.75-.41,1.11-.64-6.58-11.33-13.55-22.43-20.83-33.34-10.8,2.56-22.41,4.19-31.6,9.14-6.62,3.31-8.28,11.59-11.59,16.56-7.55,16.61,2.79,35.96-5.37,53.06,3.04,4.04,5.99,8.15,8.89,12.3,9.58-26.17,30.95-44.15,59.39-57.07Z"/>
    <path class="cls-22" d="M1768.89,791.49c-5.75-12.07-12.02-23.87-18.73-35.43-.36.23-.73.45-1.11.64-28.44,12.93-49.81,30.9-59.39,57.07,3.73,5.32,7.34,10.72,10.85,16.19,17.2-22.24,41.79-34.67,68.39-38.47Z"/>
    <path class="cls-23" d="M1777.59,815.67c-.08-.07-.16-.15-.24-.22-1.08-7.27-4.06-14.6-7.19-21.32-.41-.88-.85-1.75-1.27-2.63-26.6,3.81-51.18,16.24-68.39,38.47,7.13,11.14,13.78,22.58,19.92,34.29,18.95-17.12,33.54-40.55,57.16-48.59Z"/>
    <path class="cls-19" d="M1798.83,853c-1.3-6.44-2.78-12.91-5.75-18.75-3.69-7.24-9.43-13.09-15.49-18.58-23.62,8.03-38.21,31.47-57.16,48.59,2.55,4.87,5.03,9.78,7.4,14.73.69,1.44,1.39,2.9,2.1,4.35,16.5-4.63,29.7-18.29,45.62-25.64,7.76-3.1,15.52-4.38,23.29-4.7Z"/>
    <path class="cls-25" d="M1798.83,853c-7.76.32-15.52,1.59-23.29,4.7-15.91,7.34-29.11,21.01-45.62,25.64,2.97,6.05,6.29,11.98,11.44,16.22,5.65,4.64,12.81,6.72,20.02,8.34.09.37.16.74.24,1.11,14.53-6.54,33.89-6.17,43.48-19.63-1.71-11.93-3.75-23.8-6.12-35.61-.05-.26-.11-.51-.16-.77Z"/>
    <path class="cls-11" d="M1805.15,889.63c-.01-.08-.03-.17-.04-.25-9.59,13.46-28.95,13.09-43.48,19.63.86,3.71,1.59,7.44,2.14,11.2,2.09-.02,4.17-.33,6.23-.83,1.87-.41,3.73-.98,5.55-1.57,11.37-3.74,22.42-9.04,31.57-16.69.99-.84,1.99-1.71,2.93-2.62-1.64-2.96-3.28-5.91-4.9-8.87Z"/>
    <path class="cls-9" d="M1434.34,505.51c-3.11-1.63-5.69-3.98-8.29-6.3-2.58-2.3-5.24-4.48-8.28-6.16-3.09-1.7-6.52-3.08-10.02-3.6-3.8-.56-7.6,0-11.36.56-1.05.16-.6,1.75.44,1.6,3.71-.56,7.52-1.12,11.25-.43,3.47.64,6.82,2.07,9.84,3.87,5.67,3.37,9.76,8.84,15.62,11.91.94.49,1.75-.95.8-1.45Z"/>
    <path class="cls-9" d="M1467.76,568.16c-11.84-9.83-28.28-12.16-42.4-6.05-.98.42-.13,1.85.83,1.43,13.39-5.8,29.19-3.51,40.41,5.8.81.68,1.98-.5,1.16-1.18Z"/>
    <path class="cls-9" d="M1439.48,554.57c-4.74-3.56-10.23-5.98-16.08-6.99-1.04-.18-1.46,1.42-.4,1.61,5.54.96,10.82,3.19,15.32,6.56.84.63,2.01-.55,1.16-1.18Z"/>
    <path class="cls-9" d="M1620.3,626.83c-5.2,13.68-8.14,28.22-14.6,41.41-5.73,11.71-14.45,22.35-27.09,26.79-12.79,4.49-27.51,1.99-37.56-7.29-9.32-8.6-13.14-21.33-15.25-33.45-2.37-13.61-2.77-27.75-7.89-40.74-.63-1.59-1.32-3.16-2.08-4.69-.47-.96-1.9-.12-1.43.83,6.52,13.14,7.15,28.06,9.36,42.3,1.92,12.41,5.34,25.43,14.08,34.88,9.21,9.96,23.43,14.01,36.58,11.09,6.71-1.49,12.92-4.69,18.14-9.15,4.88-4.18,8.83-9.38,12.03-14.93,7.37-12.77,10.62-27.28,15.33-41.11.63-1.86,1.29-3.7,1.99-5.54.38-.99-1.23-1.39-1.61-.4Z"/>
    <path class="cls-9" d="M1615.39,625.3c-3.82.84-7.23,2.81-10.38,5.07-3.28,2.35-6.41,4.9-9.57,7.4-6.5,5.13-13.23,10.23-20.96,13.36-7.35,2.97-15.59,4.18-22.87.4-6.43-3.33-11.33-9.19-15.26-15.14-4.11-6.21-7.24-13.14-8.66-20.46,6.02,9.2,12.89,18.44,23.32,22.76,12.3,5.09,25.14.31,35.87-6.22,5.97-3.63,11.73-8.19,18.81-9.34,1.05-.17.6-1.77-.44-1.6-5.9.96-10.98,4.27-15.92,7.44-5.31,3.4-10.8,6.64-16.84,8.55-5.99,1.89-12.44,2.41-18.5.51-5.5-1.73-10.33-5.18-14.35-9.24-4.98-5.03-8.83-11.02-12.63-16.96-.41-.64-1.64-.45-1.54.43.86,7.86,3.65,15.35,7.67,22.13,3.79,6.39,8.59,12.63,14.79,16.86,2.96,2.02,6.32,3.52,9.87,4.09,4.17.66,8.46.1,12.5-1.03,8.02-2.23,15.12-6.8,21.69-11.78,3.94-2.98,7.75-6.13,11.69-9.12,3.68-2.8,7.57-5.51,12.16-6.51,1.04-.23.6-1.82-.44-1.6Z"/>
    <path class="cls-9" d="M1433.52,673.87c-.21-6.57-.75-13.1-1.66-19.61-1.76-12.62-4.56-25.15-8.39-37.3-2.15-6.84-4.67-13.56-7.57-20.12-.43-.97-1.86-.13-1.43.83,5.14,11.63,9,23.79,11.88,36.16,2.97,12.76,5,25.74,5.47,38.85.26,7.25.29,14.52,1.64,21.67.2,1.05,1.79.6,1.6-.44-1.25-6.61-1.32-13.35-1.54-20.05Z"/>
    <path class="cls-9" d="M1428.36,680.44c-5.1-16.36-12.11-32.12-20.88-46.85-2.47-4.14-5.07-8.2-7.81-12.18-.6-.87-2.04-.04-1.43.83,9.63,14,17.64,29.11,23.76,44.97,1.74,4.5,3.32,9.06,4.75,13.66.32,1.02,1.91.58,1.6-.44Z"/>
    <path class="cls-9" d="M1612.98,776.3c-21.4-8.08-45.03-9.21-67.36-4.68-21.82,4.43-42.26,14.15-60.4,26.93-10.63,7.49-20.71,15.78-31.89,22.47-.92.55-.08,1.98.83,1.43,9.86-5.9,18.88-13.05,28.16-19.79,9.01-6.54,18.41-12.48,28.43-17.35,19.99-9.71,42.06-15.24,64.35-14.64,12.79.35,25.5,2.72,37.48,7.24.99.38,1.39-1.23.4-1.61Z"/>
    <path class="cls-9" d="M1636.57,821.17c-13.86-14.63-28.35-29.84-47.16-38-5.55-2.41-11.57-4.29-17.69-3.52-1.05.13-1.04,1.79.02,1.66,5.54-.7,10.99.84,16.07,2.97,4.52,1.9,8.84,4.24,12.96,6.9,8.39,5.41,15.87,12.1,22.95,19.1,3.98,3.94,7.84,8.01,11.7,12.08.73.77,1.89-.41,1.16-1.18Z"/>
    <path class="cls-9" d="M1742.72,801.45c-6.9,10.46-13.84,21.03-18.45,32.74-1.31,3.33-2.42,6.73-3.27,10.2-.26,1.03,1.35,1.44,1.61.4,2.99-12.12,9.09-23.11,15.73-33.57,1.91-3.01,3.87-5.99,5.84-8.97.59-.89-.86-1.69-1.45-.8Z"/>
    <path class="cls-9" d="M1747.64,819.66c-3.42,4.1-6.62,8.38-9.58,12.83-.59.89.86,1.69,1.45.8,2.88-4.32,5.98-8.49,9.31-12.47.68-.81-.5-1.98-1.18-1.16Z"/>
    <path class="cls-9" d="M1672.98,753.44c.53-5.2,1.44-10.35,2.75-15.41.27-1.03-1.34-1.44-1.61-.4-4.76,18.34-3.91,37.49-1.29,56.09.75,5.37,1.66,10.71,2.6,16.05.19,1.05,1.78.6,1.6-.44-3.27-18.41-5.96-37.17-4.05-55.89Z"/>
    <path class="cls-9" d="M1796.92,891.37c-8.14,7.73-18.51,12.85-29.58,14.67-1.05.17-.6,1.77.44,1.6,11.35-1.87,21.99-7.19,30.32-15.11.77-.73-.41-1.89-1.18-1.16Z"/>
    <path class="cls-9" d="M1824.25,948.27c-8.22,9.21-15.99,18.81-23.29,28.77-.89,1.22-1.79,2.45-2.81,3.57-.92,1-2.07,2.22-3.46,2.51-2.91.62-3.64-3.65-3.87-5.63-.66-5.65.91-11.37,3.66-16.29.34-.61.7-1.19,1.07-1.78.18-.11.32-.29.33-.51,3.04-4.63,7.01-8.59,11.16-12.24.3-.26.26-.68.12-1-2.19-5.03-4.39-10.06-6.58-15.1-.43-.98-1.85-.13-1.43.83,2.1,4.82,4.2,9.64,6.3,14.46-3.71,3.3-7.35,7.04-10.26,11.21-1.7-4.09-3.6-8.08-5.72-11.97-.51-.94-1.94-.1-1.43.83,2.27,4.14,4.29,8.4,6.06,12.78-3.22,5.08-5.28,10.75-5.05,16.97-1.15,2.77-1.89,5.67-1.37,8.68.5,2.94,2.04,5.59,3.53,8.13.54.92,1.97.09,1.43-.83-1.33-2.27-2.69-4.59-3.25-7.19-.35-1.63-.25-3.24.1-4.82.33,1.56.92,3.07,2.07,4.13,2.16,1.98,4.89.75,6.75-.97,2.38-2.19,4.15-5.04,6.07-7.61,2.03-2.72,4.1-5.41,6.2-8.08,4.77-6.05,9.73-11.94,14.86-17.68.71-.79-.47-1.95-1.18-1.16Z"/>
    <path class="cls-9" d="M1791.7,925.62c-.13-1.05-1.79-1.04-1.66.02.7,5.71-2.42,10.79-6.69,14.3-2.03,1.67-4.47,2.91-6.09,5.05-1.44,1.89-2.01,4.37-3.86,5.95-.81.69.38,1.84,1.18,1.16,2.01-1.71,2.54-4.38,4.18-6.35,1.8-2.16,4.47-3.45,6.55-5.31,4.16-3.73,7.08-9.09,6.38-14.81Z"/>
    <path class="cls-21" d="M1411.02,351.51c-2.2,6.14-4.5,12.24-6.9,18.3-.39.98,1.06,1.79,1.45.8,2.46-6.19,4.81-12.43,7.06-18.7.36-1-1.25-1.4-1.61-.4Z"/>
    <path class="cls-21" d="M1413.8,358.65l-4.35,13.89c-.32,1.02,1.29,1.42,1.61.4,1.45-4.63,2.9-9.26,4.35-13.89.32-1.02-1.29-1.42-1.61-.4Z"/>
    <path class="cls-14" d="M1465.98,375.73c-1.94,4.95-7.59,8.33-12.88,7.38-5.54-1-5.11-7.03-6.66-11.21-.78-2.11-2.12-3.9-4.26-4.75-2.61-1.03-5.41-.58-8.13-.59-2.82,0-5.78-.68-6.73-3.68-.47-1.49-.53-3.11-.68-4.65-.17-1.76-.34-3.52-.52-5.27-.33-3.33-.67-6.92-2.61-9.76-1.6-2.35-4.18-4.1-7.11-3.96-1.06.05-1.05,1.71.02,1.66,2.99-.14,5.37,2.11,6.53,4.7,1.41,3.16,1.46,6.84,1.8,10.23.17,1.73.3,3.48.52,5.2.18,1.37.45,2.78,1.18,3.97,1.43,2.32,4.12,3.07,6.69,3.21,2.85.15,6.03-.65,8.72.61,2.27,1.07,3.08,3.47,3.63,5.74.53,2.21.86,4.54,1.98,6.55,1.28,2.29,3.53,3.47,6.09,3.75,6.01.65,11.85-3.16,14.03-8.71.39-.99-1.22-1.38-1.61-.4Z"/>
    <g>
      <path class="cls-28" d="M1655.86,918.08c-69.26,7.63-138.76,13.03-208.36,16.16.48-3.01,1.04-6.03,1.69-9.01,1.31-.1,2.63-.18,3.96-.26,37.04-2.53,74.14-5.4,110.38-13.29,29.4-6.41,58.34-16.13,88.23-18.66,2.15-.18,4.3-.33,6.47-.43-1.29,8.44-2.07,16.95-2.37,25.5Z"/>
      <path class="cls-29" d="M1447.5,934.24c69.6-3.13,139.11-8.53,208.36-16.16,2.1-.23,4.21-.46,6.29-.71,1.84,1.69,3.51,3.56,4.52,5.83,1.42,3.21,1.11,7.48-1.67,9.64-.96.73-2.17,1.21-2.83,2.24-2.17,3.31,3.48,6.46,4.3,10.33.63,2.88-1.57,5.5-2.75,8.21-1.57,3.63-1.31,7.76-1.03,11.71,2.88,38.53,5.78,77.2,14.17,114.9,1.24,5.55,2.67,11.24,6.06,15.78,2.75,3.69,6.94,7.14,6.56,11.72-.4,4.82-5.94,9.19-3.79,13.53,1.19,2.4,4.55,3.79,4.4,6.47-.1,1.92-2.04,3.18-2.98,4.87-1.19,2.17-.65,4.83-.07,7.25,1.9,7.85,3.79,15.68,5.68,23.53h-125.56c-3.38-14.88-6.77-29.77-10.15-44.65-3.08-13.53-6.18-27.14-10.98-40.12-4.39,13.08-9.55,25.98-13.69,39.14-1.23,3.89-2.37,8.06-1.29,12,.66,2.43,2.14,4.7,2.09,7.22-.07,3.25-2.62,5.81-4.65,8.34-4.04,5.02-6.64,11.19-7.37,17.6v.46h-125.03c15.13-58.1,28.41-116.69,39.85-175.63.75-3.89,1.49-7.9.76-11.8-.81-4.37-3.46-8.51-2.93-12.93.26-2.33,1.41-4.45,2.35-6.59,3.01-6.85,4.19-14.35,4.39-21.85,2.33-.1,4.67-.2,6.99-.31Z"/>
      <path class="cls-9" d="M1636.15,1062.22c-19.95.23-39.89,1.32-59.75,3.27-19.73,1.94-39.37,4.72-58.86,8.35-11.03,2.05-22.01,4.37-32.93,6.95-1.04.25-.6,1.84.44,1.6,19.29-4.56,38.76-8.3,58.37-11.19,19.67-2.9,39.46-4.94,59.31-6.13,11.13-.67,22.28-1.06,33.43-1.19,1.07-.01,1.05-1.67-.02-1.66Z"/>
      <path class="cls-9" d="M1617.97,1072.12c-16.44.75-32.88,1.51-49.32,2.26-4.66.21-9.32.43-13.97.64-1.06.05-1.05,1.7.02,1.66,16.44-.75,32.88-1.51,49.32-2.26,4.66-.21,9.32-.43,13.97-.64,1.06-.05,1.05-1.7-.02-1.66Z"/>
      <path class="cls-9" d="M1662.35,923.98c-26.1,7.35-53.34,8.92-80.25,10.88-27.79,2.02-55.59,4.03-83.41,5.75-15.61.97-31.23,1.76-46.87,2.11-1.07.02-1.05,1.68.02,1.66,27.94-.62,55.81-2.65,83.68-4.58,13.99-.97,27.99-1.94,41.97-2.95,13.65-.98,27.32-1.88,40.93-3.31,14.95-1.57,29.87-3.87,44.36-7.96,1.03-.29.59-1.89-.44-1.6Z"/>
      <path class="cls-15" d="M1455.74,969.13h60.29s2.76,40.5-2.76,53.39c-5.52,12.89-31.76,24.85-31.76,24.85,0,0-32.41-12.2-30.47-29.46,1.94-17.26,4.7-48.79,4.7-48.79Z"/>
      <path class="cls-15" d="M1646.88,972.91h-60.29s-2.76,40.5,2.76,53.39c5.52,12.89,31.76,24.85,31.76,24.85,0,0,32.41-12.2,30.47-29.46s-4.7-48.79-4.7-48.79Z"/>
    </g>
    <path class="cls-9" d="M1618.29,607.88c-1.49.36-3.13-.61-4.54-.02-2.05.84-1.67,3.84-2.47,5.93-.3.78-.84,1.46-1.51,1.95-19.47-14.39-44.42-21.41-68.39-18.06-7.24,1.01-14.3,2.88-21.29,5.13l-.1-.33c-2.43-.46-4.87-.93-7.3-1.39-.51-.1-1.03-.22-1.46-.48-1.84-1.19-.7-4.06-1.26-6.18-.7-2.6-3.94-3.59-6.61-3.34-2.68.25-5.33,1.27-8,.89-1.18-.17-2.24-.65-3.16-1.34-2.83-2.14-4.24-6.29-2.68-9.57.93-1.95,2.72-4.04,1.69-5.94-.46-.88-1.41-1.36-2.09-2.09-1.49-1.56-1.54-4.16-.43-6.01,1.13-1.85,3.2-2.98,5.31-3.34,1.46-.26,3.05-.23,4.22-1.11,2.22-1.66,1.31-5.48-1.01-7-2.3-1.52-5.28-1.42-8.03-1.27-2.76.17-5.75.26-8.05-1.26-3.81-2.52-3.36-9.25.73-11.26,2.63-1.27,5.94-.71,8.43-2.24,1.69-1.04,2.7-2.85,3.94-4.4,2.4-3.01,5.89-5.15,9.67-5.94.93-.18,1.95-.35,2.57-1.06.94-1.08.41-2.8-.46-3.92-1.89-2.38-5.26-3.48-8.2-2.65-1.32.36-2.81,1.09-4.01.38-.93-.55-1.23-1.71-1.49-2.75-1.47-5.98-4.74-12.19-10.55-14.21-1.71-.58-3.73-.89-4.74-2.38-.86-1.27-.68-2.96-.36-4.47.68-3.16,1.79-6.26,3.28-9.12.73-1.39,1.61-2.8,2.98-3.58,1.29-.73,2.86-.78,4.35-.88,10.17-.65,20.15-3.99,28.64-9.62-2.88-3.99-8.21-6.03-13.01-5-.96.2-1.92.51-2.9.45-2.07-.17-3.64-2.09-4.17-4.11-.84-3.25.4-6.79,2.57-9.35,2.17-2.57,5.15-4.32,8.16-5.81,3.03-1.51,6.21-2.8,9.57-3.25,8.16-1.08,16.67,2.98,24.54.55,2.27-.71,4.44-1.94,6.8-1.94,2.85.02,5.33,1.79,7.9,3.06,2.55,1.26,5.91,1.95,8.03.05,1.87-1.66,1.9-4.57,1.32-7-.58-2.43-1.64-4.82-1.46-7.32.18-2.5,2.27-5.12,4.72-4.65,1.37.25,2.4,1.36,3.38,2.35,4.39,4.44,9.88,7.76,15.86,9.55,1.24.38,2.57.75,3.38,1.75.98,1.23.83,2.98.63,4.54-.46,3.54-.93,7.09-1.39,10.63,2.7-2.19,5.46-4.35,8.61-5.83,3.38-1.57,7.32-2.3,10.88-1.19,2.68.83,4.95,2.6,7.14,4.37,3.03,2.47,6.04,4.97,9.01,7.5.93.79,1.87,1.62,2.4,2.72.94,1.89.35,4.4-1.34,5.68-1.08.81-2.45,1.11-3.74,1.47-1.31.36-2.67.88-3.49,1.94-.81,1.08-.81,2.88.33,3.59.46.3,1.03.36,1.57.41,3.01.28,6.06.12,9.07.48,3.01.35,6.08,1.26,8.28,3.36,3.99,3.81,3.96,10.15,6.47,15.07.88,1.71,2.09,3.26,2.73,5.08.63,1.8.56,4.07-.86,5.38-.93.84-2.17,1.11-3.46,1.13,3.49,2.3,6.74,4.95,9.7,7.91,1.26,1.27,2.5,2.63,3.21,4.27,1.08,2.52.81,5.4.46,8.11-.33,2.76-.73,5.51-1.16,8.26-.46,2.96-1.57,6.54-4.52,7.05-1.97.33-4.02-.94-5.94-1.13,8.23,3.87,14.49,11.79,16.21,20.73.51,2.63.65,5.38-.05,7.96-.96,3.54-3.51,6.61-6.8,8.2-.51.25-1.06.46-1.61.38-.83-.13-1.41-.86-1.9-1.54-3.81-5.18-8.16-9.97-12.98-14.24-1.27-1.14-2.6-2.25-4.19-2.86-1.59-.6-3.49-.61-4.9.35-1.39.98-2,3.1-1.01,4.47.48.66,1.19,1.06,1.8,1.59,1.57,1.37,2.25,3.48,3.41,5.22,2.2,3.36,6.01,5.25,8.86,8.08,4.35,4.32,6.21,11.03,4.72,16.99-.43,1.69-1.24,3.44-2.81,4.19-.89.41-1.9.45-2.88.43-3.41-.07-7.14-.78-9.25-3.43-1.57-1.99-1.94-4.64-2.65-7.05-.71-2.43-2.14-5-4.59-5.61-2.65-.65-5.56,1.84-5.33,4.55.12,1.41.89,2.67,1.42,3.97.93,2.32,1.03,4.95.26,7.32-.43,1.36-1.27,2.75-2.65,3.1Z"/>
    <path class="cls-9" d="M1379.36,413.34c-2.52-4.06-4.95-8.18-7.28-12.35-.52-.93-1.95-.1-1.43.83,2.33,4.17,4.76,8.29,7.28,12.35.56.91,1.99.07,1.43-.83Z"/>
    <path class="cls-9" d="M1374.53,421.55c-1.53-2.79-3.05-5.58-4.58-8.37-.51-.94-1.94-.1-1.43.83,1.53,2.79,3.05,5.58,4.58,8.37.51.94,1.94.1,1.43-.83Z"/>
    <path class="cls-9" d="M1367.46,433.68c-1.7-2.31-3.25-4.73-4.65-7.23-.52-.93-1.95-.09-1.43.83,1.4,2.5,2.96,4.91,4.65,7.23.26.36.72.54,1.13.3.35-.21.56-.77.3-1.13Z"/>
    <path class="cls-9" d="M1380.35,485.76c-3.87,1.53-7.73,3.32-10.8,6.2-2.81,2.63-4.81,6.15-5.07,10.03-.07,1.06,1.58,1.04,1.66-.02.54-7.8,8.21-12.07,14.66-14.62.98-.39.55-1.99-.44-1.6Z"/>
  </g>
  <g id="middle">
    <g>
      <path class="cls-3" d="M1008.13,675.33c-.07.36-.15.7-.26,1.07-1.05,3.71-3.21,7.01-5.4,10.21-3.83,5.62-7.77,11.17-11.86,16.64-.5,6.79-1.05,13.56-1.63,20.35-.82,9.76-1.72,19.51-2.7,29.25-.74,3.06-1.44,6.1-2.15,9.16-3.3,14.52-6.12,29.15-8.46,43.84,1.01,3.32,1.8,6.7,2.3,10.14,1.79,12.37-.34,24.92-1.84,37.34-2.2,18.54-2.94,37.24-3.63,55.9.52.65,1.03,1.31,1.56,1.96-4.16,29.8-8.3,59.62-12.46,89.42-5.83-4.38-9.86-11.1-12.61-17.98-3.35-8.4-5.16-17.36-8.58-25.74-1.2-2.96-2.61-5.86-3.3-8.99-1.48-6.89.74-14.02.55-21.09-4.19-30.25-9.21-60.39-15-90.36-3.18-16.41-6.6-32.91-6.48-49.63.12-16.72,3.82-33.2,5.59-49.84,4.95-46.76-5.34-94-2.27-140.94.53-8.16,1.51-16.46,4.88-23.92,8.64-19.13,30.3-28.15,45.06-43.1,8.3,7.77,16.52,15.62,24.63,23.58.22.22.46.45.69.67,1.72,1.68,3.47,3.44,4.42,5.67.69,1.62.89,3.37,1.08,5.12,2.03,17.87,3.76,35.78,5.19,53.7,1.25,15.55,2.29,31.14,3.09,46.74.19,3.63.36,7.3-.43,10.83Z"/>
      <path class="cls-9" d="M993.36,648.53c.46-1-1.04-1.84-1.5-.83-1.38,2.99-1.62,6.23-1.67,9.48-.05,3.65-.06,7.31-.08,10.96-.04,7.46-.04,14.92-.02,22.37.01,4.26.04,8.52.07,12.78,0,1.11,1.73,1.09,1.72-.02-.12-14.49-.12-28.98,0-43.47.03-3.78-.14-7.77,1.48-11.29Z"/>
      <path class="cls-9" d="M964.82,940.58c.18-3.54.56-7.41-1.09-10.68-.5-.99-1.98-.12-1.49.87,1.48,2.94,1.02,6.66.86,9.84-.17,3.47-.52,6.94-1.21,10.35-.68,3.37-1.85,6.46-3.09,9.65-.58,1.49-.43,2.85-.1,4.38.41,1.85.82,3.71,1.24,5.56.92,4.12,1.87,8.23,2.83,12.34.25,1.08,1.91.62,1.66-.45-.87-3.7-1.72-7.4-2.56-11.1-.42-1.85-.83-3.7-1.24-5.56-.2-.9-.49-1.84-.55-2.76-.06-.95.29-1.76.67-2.61,2.72-6.25,3.73-13.03,4.07-19.8Z"/>
      <path class="cls-9" d="M961.66,990.85c-.67,1.35-1.98,2.29-3.51,2.35-.53.02-.99.02-1.24-.51-.15-.31-.22-.71-.31-1.03-.26-.89-.51-1.78-.76-2.68-1.03-3.78-2.04-7.56-3.06-11.34-2.06-7.65-4.12-15.3-6.18-22.94-.29-1.07-1.95-.61-1.66.45,1.86,6.9,3.72,13.79,5.57,20.69.94,3.48,1.88,6.96,2.81,10.45.44,1.63.87,3.25,1.33,4.87.32,1.13.52,2.76,1.65,3.41,2.45,1.39,5.75-.68,6.85-2.88.49-.99-1.01-1.83-1.5-.83Z"/>
    </g>
    <path class="cls-2" d="M1203.44,740.2c3.64,17.58,6.7,35.28,9.21,53.05-1.84,1-3.68,1.98-5.53,2.96-8.68,4.57-17.53,8.85-26.93,11.57-11.98,3.45-25.09,4.24-36.74-.17-9.42-3.57-17.25-10.24-25.8-15.55-5.05-3.14-10.36-5.81-15.81-8.15-19.28,7.8-35.83,21.98-54.34,31.95-5.26,2.84-10.74,5.34-16.57,6.62-8.75,1.92-17.92.95-26.52-1.58-2.66-.79-5.28-1.72-7.85-2.78-3.95-1.56-7.8-3.4-11.6-5.38-.33-.86-.64-1.7-.95-2.56-.98-2.66-1.96-5.34-2.34-8.15-.43-3.21-.03-6.48.34-9.69,1.17-9.88,2.25-19.76,3.27-29.66.36-3.27.69-6.55,1-9.83.98-9.74,1.87-19.49,2.7-29.25.58-6.79,1.13-13.56,1.63-20.35,4.09-5.46,8.03-11.02,11.86-16.64,2.18-3.2,4.35-6.5,5.4-10.21.1-.36.19-.7.26-1.07.79-3.52.62-7.2.43-10.83-.81-15.6-1.84-31.19-3.09-46.74-1.43-17.92-3.16-35.83-5.19-53.7-.19-1.75-.4-3.51-1.08-5.12-.95-2.23-2.7-3.99-4.42-5.67-.22-.22-.46-.45-.69-.67-8.11-7.96-16.33-15.81-24.63-23.58-1.36-1.27-2.73-2.56-4.11-3.83,10.16-10.6,24.52-16.72,39.05-19.49,3.92-.74,7.92-1.27,11.65-2.68,8.13-3.06,14.14-9.86,19.49-16.79,1.08,1.03,2.18,2.06,3.32,3.04,1.91,1.7,3.88,3.3,6.01,4.71,2.65,1.75,5.5,3.16,8.33,4.59,5.16,2.56,10.33,5.14,15.72,7.11,5.98,2.18,12.22,3.66,18.54,4.33,12.72-9.26,24.76-19.42,36.07-30.4.5-.48,1.01-.98,1.51-1.48,6.07,1.15,12.06,2.77,17.87,4.85.15,1.56.33,3.11.48,4.67,1.51,14.4,3.02,28.8,4.52,43.2,1.62,15.43,3.21,30.87,4.83,46.28.72,7.01,1.46,14.01,2.18,21,.72,6.96,1.46,13.99,3.64,20.64,2.2,6.74,5.83,12.87,10.36,18.3,4.54,5.45,9.98,10.17,15.84,14.13,7.53,5.09,15.72,9.01,24.18,12.36,3.61,1.43,7.25,2.77,10.93,4.04-4.24,14.57-8.11,29.25-11.55,44.05-1.98,8.47-3.82,17-5.53,25.54-.26,1.32-.52,2.66-.77,4,.02-.02.05-.03.07-.05.43-.31.88-.62,1.32-.93Z"/>
    <path class="cls-3" d="M1133.27,471.33c-.13.61-.29,1.25-.72,1.7-.31.36-.75.57-1.2.77-3.34,1.49-7,2.34-10.67,2.49.11,1.67.25,3.36.36,5.03-10.78,10.47-20.6,23.86-32.73,32.7-6.03-.64-13.65-5.75-19.35-7.83-5.15-1.88-10.08-4.34-15-6.79-2.7-1.36-5.42-2.7-7.95-4.38-2.03-1.34-3.92-2.87-5.74-4.49.93-2.57,1.25-5.36,1.11-8.15.95-.57,2-.98,3.05-1.39,17.37-6.57,36.48-8.49,54.82-5.51,5.21.85,10.47,2.15,14.9,5,.66-4.77,2.9-9.11,4.9-13.54.69-1.51,1.34-3.02,1.9-4.56,2.52-6.95,3-14.64,1.41-21.86-5.67.8-11.54-1.84-15.34-6.15-3.98-4.47-5.88-10.51-6.21-16.49-.23-3.84.16-7.72,1.36-11.36.67-2.08,1.64-4.1,3.1-5.7.54-.61,1.18-1.15,1.85-1.59,1.15-.75,2.44-1.26,3.8-1.36,2.72-.18,5.38,1.28,7.16,3.34,1.8,2.07,2.85,4.65,3.65,7.28.66,2.1,1.16,4.24,1.57,6.41.67,3.43,1.1,6.92,1.49,10.39,1.64-.93,3.28-1.85,4.92-2.79-.8-2.79-1.46-5.61-1.98-8.46-1.88-10.23-2.07-20.81-1.49-31.24.38-6.88,1.13-13.96,3.97-20.21.03.02.05-.02.08-.07,2.38,8.59,3.23,17.52,4.06,26.39,2.61,27.47,5.18,55.53-1.1,82.39Z"/>
    <path class="cls-25" d="M1101.84,783.9c-19.28,7.8-35.83,21.98-54.34,31.95-5.26,2.84-10.74,5.34-16.57,6.62-8.75,1.92-17.92.95-26.52-1.58-2.66-.79-5.28-1.72-7.85-2.78-3.95-1.56-7.8-3.4-11.6-5.38-.33-.86-.64-1.7-.95-2.56-.98-2.66-1.96-5.34-2.34-8.15-.43-3.21-.03-6.48.34-9.69,1.17-9.88,2.25-19.76,3.27-29.66,2.51,1.46,5.04,2.89,7.58,4.3,2.22,1.22,4.49,2.42,6.98,2.87,3.18.55,6.44-.21,9.49-1.25,11.93-4.06,21.91-12.25,32.46-19.13,10.55-6.89,22.79-12.73,35.28-11.12,7.49.98,14.35,4.54,21.22,7.66,12.49,5.67,25.57,10.02,38.98,12.99,12.44,2.75,25.76,4.23,37.72-.21,10.11-3.75,18.23-11.36,27.05-17.6.02-.02.05-.03.07-.05.43-.31.88-.62,1.32-.93,3.64,17.58,6.7,35.28,9.21,53.05-1.84,1-3.68,1.98-5.53,2.96-8.68,4.57-17.53,8.85-26.93,11.57-11.98,3.45-25.09,4.24-36.74-.17-9.42-3.57-17.25-10.24-25.8-15.55-5.05-3.14-10.36-5.81-15.81-8.15Z"/>
    <path class="cls-19" d="M1202.82,737.18c-.26,1.32-.52,2.66-.77,4-8.82,6.24-16.94,13.85-27.05,17.6-11.96,4.43-25.28,2.96-37.72.21-13.4-2.97-26.48-7.32-38.98-12.99-6.87-3.13-13.73-6.69-21.22-7.66-12.49-1.62-24.73,4.23-35.28,11.12-10.55,6.87-20.54,15.07-32.46,19.13-3.04,1.05-6.31,1.8-9.49,1.25-2.49-.45-4.76-1.65-6.98-2.87-2.54-1.41-5.07-2.84-7.58-4.3.36-3.27.69-6.55,1-9.83.98-9.74,1.87-19.49,2.7-29.25,12.15-1.67,24.09-7.01,34.59-13.63,13.23-8.35,25.95-19.08,41.49-21.02,10.14-1.25,20.33,1.46,29.95,4.9,24.27,8.7,47.47,22.41,73.21,23.78,13.61.74,27-2.05,40.13-5.98-1.98,8.47-3.82,17-5.53,25.54Z"/>
    <path class="cls-23" d="M1208.97,663.55c3.61,1.43,7.25,2.77,10.93,4.04-4.24,14.57-8.11,29.25-11.55,44.05-13.13,3.94-26.52,6.72-40.13,5.98-25.74-1.37-48.94-15.09-73.21-23.78-9.62-3.44-19.81-6.15-29.95-4.9-15.54,1.94-28.25,12.67-41.49,21.02-10.5,6.62-22.44,11.96-34.59,13.63.58-6.79,1.13-13.56,1.63-20.35,4.09-5.46,8.03-11.02,11.86-16.64,2.18-3.2,4.35-6.5,5.4-10.21.1-.36.19-.7.26-1.07,2.01-.52,3.99-1.17,5.91-1.99,4.14-1.8,7.87-4.4,11.62-6.93,19.69-13.23,42.67-25.14,66.1-21.4,11,1.75,21.33,6.91,32.43,7.8,16.17,1.29,31.09-6.41,44.77-15.74,4.54,5.45,9.98,10.17,15.85,14.13,7.53,5.09,15.72,9.01,24.18,12.36Z"/>
    <path class="cls-22" d="M1158.58,618.77c2.2,6.74,5.83,12.87,10.36,18.3-13.68,9.33-28.6,17.03-44.77,15.74-11.1-.89-21.43-6.05-32.43-7.8-23.42-3.75-46.4,8.16-66.1,21.4-3.75,2.53-7.48,5.12-11.62,6.93-1.92.82-3.9,1.48-5.91,1.99.79-3.52.62-7.2.43-10.83-.81-15.6-1.84-31.19-3.09-46.74,23.7-3.99,46.86-13.44,69.5-22.15,24.94-9.59,51.52-18.53,77.8-18.47.72,7.01,1.46,14.01,2.18,21,.72,6.96,1.46,13.99,3.64,20.64Z"/>
    <path class="cls-28" d="M1152.76,577.13c-26.28-.05-52.86,8.88-77.8,18.47-22.63,8.71-45.8,18.17-69.5,22.15-1.43-17.92-3.16-35.83-5.19-53.7-.19-1.75-.4-3.51-1.08-5.12-.95-2.23-2.7-3.99-4.42-5.67-.22-.22-.46-.45-.69-.67,19.97.03,40.28-3.9,59.98-7.87,21-4.23,42-8.46,63-12.67,6.08-1.22,12.2-2.46,18.39-2.51,4.21-.03,8.37.46,12.48,1.31,1.62,15.43,3.21,30.87,4.83,46.28Z"/>
    <path class="cls-21" d="M1089.43,453.51c-18.02,11.59-42.11,10.02-59.56-.71,1.15,2.41,2.3,4.83,3.49,7.22,2.64,5.26,5.52,10.46,7.05,16.14.54,2.02.88,4.13.98,6.23.95-.57,2-.98,3.05-1.39,17.37-6.57,36.48-8.49,54.82-5.51,5.21.85,10.47,2.15,14.9,5,.66-4.77,2.9-9.11,4.9-13.54.69-1.51,1.34-3.02,1.9-4.56,2.52-6.95,3-14.64,1.41-21.86-5.67.8-11.54-1.84-15.34-6.15-1.17-1.31-2.13-2.76-2.95-4.3-1.98,9.28-6.11,17.73-14.65,23.42Z"/>
    <path class="cls-9" d="M1140.73,340.34c-.26-2.77-1.39-5.54-3.51-7.36-1.43-1.25-3.23-2.02-4.54-3.38-1.54-1.61-2.23-3.84-3.16-5.87-1.16-2.54-2.79-4.88-4.75-6.85-2.38-2.38-5.31-4.24-8.56-5.06-5.1-1.31-10.55.07-15.26,2.41-4.7,2.36-8.85,5.67-13.24,8.59-6.62,4.39-14.21,7.95-22.03,8.62-12.54,3.44-26.81,2.2-37.17,9.96-9.6,7.21-12.9,20.62-10.93,32.47-8.34,4.03-13.87,12.85-15.03,22.04-1.16,9.19,1.69,18.62,6.75,26.37,1.1,1.67,2.28,3.28,3.56,4.8,1.92,1.67,3.67,3.56,5.24,5.56,2.31,2.84,4.33,5.93,6.13,9.1,2.04,3.6,3.85,7.32,5.64,11.06,17.45,10.73,41.54,12.3,59.56.71,8.54-5.69,12.67-14.14,14.65-23.42-1.99-3.71-3.03-7.96-3.26-12.19-.23-3.84.16-7.72,1.36-11.36.67-2.08,1.64-4.1,3.1-5.7.54-.61,1.18-1.15,1.85-1.59l-.28-.59c.25-9.47,4.23-18.82,10.9-25.55,4-4.05,8.98-7.24,12.18-11.92.13.43.25.87.36,1.29.02.03.02.05.02.07,4.16-3.79,7.34-8.65,9.18-14,.9-2.64,1.49-5.42,1.25-8.21Z"/>
    <path class="cls-21" d="M1126.26,382.83c-.57,10.42-.39,21.01,1.49,31.24.52,2.85,1.18,5.67,1.98,8.46-1.64.93-3.28,1.85-4.92,2.79-.39-3.47-.82-6.97-1.49-10.39-.41-2.16-.92-4.31-1.57-6.41-.8-2.62-1.85-5.21-3.65-7.28-1.79-2.07-4.44-3.52-7.16-3.34-1.36.1-2.66.61-3.8,1.36l-.28-.59c.25-9.47,4.23-18.82,10.9-25.55,4-4.05,8.98-7.24,12.18-11.92.13.43.25.87.36,1.29-.03.05-.05.1-.07.13-2.84,6.24-3.59,13.32-3.97,20.21Z"/>
    <path class="cls-9" d="M1074.57,358.45c-1.33-3.34-3.31-6.36-5.44-9.24-2.13-2.9-4.39-5.72-6.24-8.8-.42-.7-.78-1.42-1.14-2.14-1.44-5.18-1.68-10.72-2.36-16.04-.92-7.14-2.91-13.98-8.19-19.15-10.33-10.11-28.24-11.7-40.16-3.5-3.32,2.28-6.09,5.33-8.03,8.83-1.7,1.3-3.31,2.74-4.78,4.32-2.52,2.29-4.61,5.02-6.02,8.18-1.92,3.28-3.38,6.88-3.64,10.7-.26,3.92,1.18,7.56,1.95,11.34.41,2.03.54,4.15-.11,6.16-.59,1.8-1.72,3.39-2.82,4.9-2.31,3.11-4.75,6.15-6.79,9.44-1.93,3.1-3.51,6.47-4.21,10.08-.55,2.93-.55,5.91-.12,8.86-1.7,6.38-1.18,13.71,2.72,19.15,4.08,5.69,10.95,8.77,17.78,9.47,8.03.83,16.3-1.45,22.86-6.12,1.93-1.37,3.74-2.94,5.54-4.53.39-.17.77-.34,1.17-.5,3.88-1.59,7.74-2.33,11.93-2.31,3.93.02,7.82.2,11.72-.51,6.87-1.23,13.44-4.56,18.26-9.64,4.77-5.03,7.6-11.78,7.85-18.72.11-3.47-.43-7-1.72-10.24ZM1013.69,406.59c-3.56,1.65-7.45,2.63-11.37,2.89-6.84.45-14.16-1.31-19.3-6.05-4.73-4.36-6.38-10.82-5.66-17.03,1.63,5.35,4.85,10.24,9.25,13.67,5.39,4.21,12.23,6.34,19.04,6.28,3.52-.05,7-.69,10.31-1.88,1.29-.47,2.55-1.01,3.8-1.57-1.91,1.42-3.91,2.7-6.08,3.71ZM1058.24,329.33c-1.21-3.62-2.47-7.26-4.49-10.52-1.72-2.84-3.9-5.39-6.41-7.57-5.02-4.38-11.29-7.24-17.91-7.98-2.54-.29-5.13-.28-7.72-.03-5.16-.84-10.39.11-15.11,2.79-.02,0-.03.02-.05.03,1.15-1.47,2.45-2.82,3.91-4,5.81-4.7,13.62-6.5,20.97-5.93,6.59.52,13.18,3.12,18.06,7.63,2.45,2.26,4.41,4.99,5.71,8.06,1.38,3.26,2.06,6.79,2.52,10.29.36,2.8.61,5.65.95,8.48-.14-.41-.28-.82-.42-1.24Z"/>
    <path class="cls-9" d="M1123.47,495.17c-7.96,11.76-16.96,23.33-29.36,30.68-12.48,7.39-27.44,10.26-41.75,7.86-8.13-1.36-15.92-4.32-22.91-8.68-.94-.59-1.77.92-.83,1.5,12.67,7.9,27.98,11.21,42.77,9.09,7.27-1.04,14.35-3.34,20.85-6.76,6.49-3.41,12.27-8,17.36-13.26,5.79-5.98,10.72-12.73,15.38-19.61.62-.91-.89-1.74-1.5-.83Z"/>
    <path class="cls-9" d="M1122.27,479.61c-7.69,5.3-14.07,12.14-20.72,18.64-6.78,6.62-14.37,13.7-23.66,16.47-5.65,1.69-11.62,1.75-17.46,1.4-1.11-.07-1.08,1.65.02,1.72,5.21.31,10.49.27,15.6-.87,4.99-1.11,9.52-3.47,13.7-6.38,7.8-5.44,14.25-12.49,21.05-19.07,3.87-3.75,7.89-7.36,12.33-10.43.91-.63.05-2.11-.87-1.49Z"/>
    <path class="cls-9" d="M1110.31,409.22c-.58-.88-1.99-.06-1.42.83,4.4,6.72,9.03,13.85,9.69,22.07.08,1.05,1.72,1.04,1.64-.02-.69-8.54-5.34-15.9-9.92-22.88Z"/>
    <path class="cls-9" d="M1122.91,405.62c-.29-1.02-1.87-.58-1.58.43,1.72,6.14,2.7,12.44,2.91,18.81.03,1.05,1.67,1.04,1.64-.02-.22-6.5-1.21-12.96-2.97-19.22Z"/>
    <path class="cls-9" d="M1133.01,471.02c-4.57,3.39-10.41,4.79-16.02,3.74-1.03-.19-1.44,1.4-.4,1.59,6,1.12,12.33-.28,17.24-3.92.84-.62.02-2.04-.83-1.42Z"/>
    <path class="cls-9" d="M1164.04,768.74c-13.94,1.06-28,2.16-41.45,6.21-6.69,2.01-13.18,4.62-19.62,7.31-6.14,2.57-12.25,5.33-17.78,9.08-5.71,3.88-10.85,8.82-17.38,11.34-1.02.4-.58,2.06.45,1.66,5.67-2.19,10.31-6.07,15.15-9.63,5.31-3.92,11.11-6.94,17.15-9.57,6.34-2.76,12.78-5.37,19.34-7.54,6.61-2.18,13.4-3.71,20.28-4.75,7.92-1.19,15.91-1.79,23.88-2.4,1.1-.08,1.09-1.8-.02-1.72Z"/>
    <path class="cls-9" d="M1162.28,785.65c-3.93-.36-7.73-1.51-11.58-2.3-3.87-.79-7.8-1.33-11.74-1.64-7.89-.61-15.82-.21-23.62,1.13-1.09.19-.63,1.84.45,1.66,7.78-1.34,15.72-1.68,23.59-1.04,3.93.32,7.84.9,11.7,1.72,3.73.8,7.4,1.84,11.22,2.19,1.1.1,1.07-1.62-.02-1.72Z"/>
    <path class="cls-9" d="M1114.93,621.7c-11.94,10.79-23.32,22.2-34.07,34.18-10.71,11.94-20.8,24.45-30.21,37.44-5.3,7.31-10.38,14.79-15.24,22.4-.59.93.91,1.76,1.5.83,8.62-13.5,17.94-26.55,27.92-39.08,9.95-12.48,20.56-24.45,31.76-35.83,6.34-6.44,12.86-12.69,19.57-18.74.82-.74-.41-1.94-1.23-1.2Z"/>
    <path class="cls-9" d="M1110.12,676.46c-12.9,8.94-25.34,18.54-37.26,28.76-3.41,2.92-6.78,5.9-10.1,8.92-.82.74.41,1.94,1.23,1.2,11.55-10.5,23.63-20.41,36.19-29.68,3.56-2.62,7.16-5.2,10.8-7.72.9-.63.04-2.12-.87-1.49Z"/>
    <g>
      <path class="cls-29" d="M1236.19,1063.32c3.27,33.68,8.92,67.14,16.88,100.04h-112.48c-1.43-8.25-2.85-16.52-4.28-24.78-.48-2.75-1-5.6-2.56-7.91-1.82-2.7-4.98-4.57-5.86-7.72-.98-3.54,1.39-7.25.91-10.9-.64-4.78-5.64-7.51-8.49-11.38-4.21-5.72-3.47-13.54-3.54-20.64-.12-10.69-2.53-21.19-4.92-31.6-6.87-29.9-13.77-59.96-23.29-89.09-1.48,37.38-12.06,73.93-15.71,111.21-.52,5.29-.89,10.66-2.51,15.71-1.19,3.68-3.09,7.24-5.83,9.92-.81,9.85-2.15,19.64-3.51,29.44-1.75,12.58-3.49,25.14-5.22,37.74h-109.8c3.02-25.69,6.05-51.4,9.07-77.08.27-2.41.53-4.93-.4-7.17-1.63-3.94-6.81-7.39-4.78-11.14.64-1.17,1.87-1.91,2.63-3.01,3.42-5.02-5.29-11.88-2.39-17.2.77-1.43,2.25-2.32,3.35-3.52,2.32-2.51,2.9-6.14,3.37-9.54,1.58-11.38,3.18-22.74,4.76-34.11,4.16-29.8,8.3-59.62,12.46-89.42,2.39-17.1,4.76-34.2,7.15-51.3,2.08-14.92,5.1-31.42,15.33-41.78,2.58,1.07,5.19,1.99,7.85,2.78,8.59,2.53,17.77,3.51,26.52,1.58,5.83-1.27,11.31-3.78,16.57-6.62,18.51-9.97,35.06-24.15,54.34-31.95,5.45,2.34,10.76,5,15.81,8.15,8.54,5.31,16.38,11.98,25.8,15.55,11.65,4.42,24.76,3.63,36.74.17,9.4-2.72,18.25-6.99,26.93-11.57,18.13,76.34,5.83,157.88,26.19,233.76,2.92,10.9,6.31,23.13,2.89,33.36Z"/>
      <path class="cls-9" d="M1087.48,956.43c-19.71-12.77-40.22-24.3-61.38-34.48-5.93-2.85-11.9-5.6-17.92-8.24-1-.44-1.85,1.06-.83,1.5,21.51,9.44,42.42,20.22,62.57,32.29,5.64,3.38,11.22,6.86,16.74,10.43.93.6,1.76-.9.83-1.5Z"/>
      <path class="cls-9" d="M1060.61,1092.09c-4.76-2.42-8.53-6.6-10.38-11.62-.38-1.03-2.04-.58-1.66.45,2.01,5.45,6.03,10.03,11.21,12.67.98.5,1.82-1,.83-1.5Z"/>
      <path class="cls-9" d="M1237.26,1157.04c-3.8-11.14-6.24-22.71-7.15-34.45-.45-5.73-.35-11.44-.4-17.17-.04-5.22-.4-10.55-2.46-15.41-.97-2.29-2.35-4.37-3.45-6.6-1.36-2.75-1.8-5.51-1.32-8.55.43-2.74,1.36-5.37,1.91-8.08.5-2.41.69-4.89.59-7.35-.44-10.43-5.61-19.95-9.79-29.27-9.19-20.5-11.01-42.68-10.6-64.89.43-22.88,2.42-45.65,1.42-68.55-1.02-23.53-4.22-46.97-9.54-69.91-.66-2.86-1.36-5.71-2.09-8.55-.27-1.07-1.93-.62-1.66.45,5.91,23.1,9.66,46.73,11.17,70.53.74,11.76.93,23.55.6,35.32-.32,11.13-1.03,22.24-1.42,33.37-.75,21.69-.31,43.99,7.16,64.63,3.68,10.16,9.55,19.55,12.05,30.12,1.28,5.41,1.26,10.7-.13,16.08-1.31,5.09-2.46,9.78-.19,14.77,1.03,2.26,2.44,4.33,3.47,6.59,1.22,2.65,1.86,5.54,2.2,8.42.65,5.55.23,11.16.37,16.73.29,11.47,1.98,22.92,5.04,33.98.77,2.78,1.62,5.52,2.55,8.25.36,1.04,2.02.59,1.66-.45Z"/>
      <path class="cls-9" d="M976.52,1071.48c-3.55-6.27-9.44-11.14-14.84-15.75-.84-.72-2.04.51-1.2,1.23,4.53,3.88,9.13,7.81,12.7,12.63.88,1.19,1.91,2.48,2.39,3.89.54,1.57-.15,2.79-1.55,3.53-2.66,1.4-6.12.94-8.68-.45-.97-.53-1.81.97-.83,1.5,2.94,1.6,6.68,2.04,9.81.69,1.24-.54,2.38-1.41,2.9-2.69.63-1.56.08-3.19-.71-4.58Z"/>
      <path class="cls-9" d="M1076.29,958.95c-18.93-6.87-37.92-13.6-56.95-20.19-5.36-1.86-10.73-3.7-16.1-5.53-1.05-.36-1.46,1.31-.42,1.67,19.06,6.51,38.08,13.15,57.04,19.95,5.34,1.91,10.68,3.84,16.01,5.77,1.04.38,1.45-1.29.42-1.67Z"/>
      <path class="cls-9" d="M1173.27,937.17c-14.57,6.95-30.27,11.55-46.29,13.53-4.56.56-9.15.91-13.75,1.06-1.11.04-1.09,1.75.02,1.72,16.43-.53,32.75-3.71,48.16-9.43,4.32-1.6,8.56-3.41,12.72-5.39,1-.48.13-1.96-.87-1.49Z"/>
      <path class="cls-9" d="M1092.27,807.16c-4.56,15.67-7.51,31.79-8.8,48.06-.37,4.67-.6,9.34-.7,14.02-.02,1.11,1.7,1.09,1.72-.02.34-16.24,2.34-32.42,5.97-48.26,1.03-4.49,2.2-8.96,3.48-13.38.31-1.06-1.36-1.48-1.67-.42Z"/>
    </g>
    <path class="cls-3" d="M1347.64,634.46c-7.13,9.74-15.05,18.92-23.68,27.39-9.88,1.91-20.04,2.08-30.13,2.22-12.96.19-26.35.27-38.29-4.76-9.35-3.95-17.15-10.76-25.14-17-7.18-5.62-14.66-10.84-22.38-15.67.31,12.27.64,24.54.95,36.83v.09c-8.46-3.35-16.65-7.27-24.18-12.36-5.86-3.95-11.31-8.68-15.84-14.13-4.54-5.43-8.16-11.57-10.36-18.3-2.18-6.65-2.92-13.68-3.64-20.64-.72-6.99-1.46-13.99-2.18-21-1.62-15.42-3.21-30.85-4.83-46.28-1.5-14.4-3.01-28.8-4.52-43.2,17.36,2.85,35.87.36,51.93,7.49,7.22,3.2,13.49,8.16,19.49,13.28,15.33,13.06,29.47,27.45,44.17,41.19,10.07,9.42,15.59,14.5,26.18,23.33,0,0,2.14-15.37,2.54-25.22.72-17.55,1.25-35.11,1.6-52.67-5.64-13.34-14.16-25.3-20.23-38.46-.86-1.86-1.68-3.76-2.08-5.77-.5-2.44-.38-4.95-.26-7.44.34-6.91.69-13.83,1.03-20.74.03-.93.09-1.89.41-2.75.38-1.01,1.1-1.84,1.8-2.65,4.78-5.48,9.54-10.96,14.3-16.45.34-.38.67-.76,1-1.13.58-.67,1.32-1.39,2.2-1.27.5.09.89.43,1.22.81.89,1.01,1.37,2.3,1.6,3.64l2.65-.43c-.64-3.94-1.27-7.87-1.87-11.81-.43-2.85-.86-5.72-1.12-8.61-.12-1.25-.21-2.53-.24-3.8-.02-.58-.02-1.2.15-1.77.15-.53.46-1.03.82-1.44,1.72-2.01,4.88-2.58,7.18-1.32,2.92,1.6,3.92,5.24,4.66,8.47.02.09.03.19.07.27.57,2.47,1.17,4.95,1.82,7.42,1.46.67,2.94,1.34,4.4,2.01.89.41,1.77.81,2.66,1.22.79.36,1.6.74,2.17,1.39.74.84.95,2.01,1.15,3.11.24,1.27.5,2.54.77,3.82,1.65.22,3.32.46,4.98.69.89.14,1.84.28,2.58.77,1,.67,1.48,1.86,1.89,2.97,2.87,7.48,5.48,15.07,8.8,22.38,1.08,2.39,2.25,4.79,2.56,7.39.24,2.17-.14,4.37-.5,6.51-2.23,12.89-4.45,25.8-6.67,38.68,5.74,38.1,11.46,76.18,17.19,114.28,1.96,13.06,3.92,26.5,1.22,39.41Z"/>
    <path class="cls-1" d="M1282.03,370.7c-.24-.69-.46-1.39-.69-2.1,10.48-2.84,21.77-2.56,32.14.72-.98,4.9-1.99,9.81-3.02,14.71-2.56-.81-5.19-1.36-7.84-1.63-.03-.09-.05-.19-.07-.27-.74-3.23-1.74-6.87-4.66-8.47-2.3-1.25-5.46-.69-7.18,1.32-.36.41-.67.91-.82,1.44-.17.57-.17,1.19-.15,1.77.03,1.27.12,2.54.24,3.8-2.37.03-4.73.36-7.01.96l-.93-12.25Z"/>
    <path class="cls-12" d="M1319.58,336.67c-.65,4.59-1.5,9.16-2.35,13.71-1.2,6.32-2.46,12.63-3.75,18.94-10.36-3.28-21.65-3.56-32.14-.72-1.77-5.43-3.42-10.91-4.95-16.43,1.91,1.34,4.62,1.51,6.82.62,2.7-1.1,4.69-3.47,6.03-6.03,1.51-2.9,2.35-6.14,4.12-8.88,1.75-2.75,4.86-5.05,8.08-4.47,3.64.65,5.83,4.61,9.31,5.84,3.06,1.1,6.58-.22,8.82-2.58Z"/>
    <path class="cls-19" d="M1276.39,352.17c-.43-.29-.81-.65-1.13-1.07-1.77-2.23-1.55-5.38-1.87-8.21-.52-4.59-2.65-8.82-4.11-13.18-1.48-4.38-2.25-9.37-.14-13.47,2.1-4.09,6.69-6.41,11.24-7.03s9.16.19,13.7.88c4.28.65,8.7,1.19,12.94.33.26-.03.5-.1.76-.15,1.7-.41,3.39-1.07,5.14-1.08.21,0,.4,0,.58.03.1,0,.21.02.31.03.91.15,1.82.45,2.66.88.02,0,.03,0,.05.02,1.67.91,3.04,2.41,3.85,4.14,1.29,2.75,1.29,5.95.52,8.88-.17,4.52-.65,9.02-1.31,13.51-2.23,2.35-5.76,3.68-8.82,2.58-3.49-1.24-5.67-5.19-9.31-5.84-3.21-.58-6.32,1.72-8.08,4.47-1.77,2.75-2.61,5.98-4.12,8.88-1.34,2.56-3.33,4.93-6.03,6.03-2.2.89-4.92.72-6.82-.62Z"/>
    <path class="cls-21" d="M1292.96,402.4l-2.65.43c-.22-1.34-.7-2.63-1.6-3.64-.33-.38-.72-.72-1.22-.81-.88-.12-1.62.6-2.2,1.27-.33.38-.65.76-1,1.13l-1.34-17.84c2.29-.6,4.64-.93,7.01-.96.26,2.89.69,5.76,1.12,8.61.6,3.94,1.24,7.87,1.87,11.81Z"/>
    <path class="cls-9" d="M1230.1,640.61c-12.76-8.9-25.24-18.21-37.4-27.92-3.43-2.74-6.83-5.51-10.21-8.31-.85-.7-2.05.52-1.2,1.23,12.05,9.98,24.42,19.57,37.08,28.75,3.61,2.62,7.24,5.2,10.9,7.75.91.63,1.73-.88.83-1.5Z"/>
    <path class="cls-9" d="M1302.08,588c-8.05-8.74-16.74-16.88-25.98-24.35-.85-.69-2.06.53-1.2,1.23,9.24,7.47,17.92,15.61,25.98,24.35.75.81,1.95-.42,1.2-1.23Z"/>
    <path class="cls-9" d="M1316.4,312.71c-2.2,3.19-4.48,6.39-7.4,8.99-2.75,2.45-5.9,4.02-9.52,4.69-3.86.72-7.88.77-11.76.17-1.95-.3-3.88-.76-5.76-1.37-1.81-.59-3.57-1.31-5.51-1.16-1.1.09-1.09,1.8.02,1.72,2.16-.17,4.17.87,6.2,1.46,1.97.57,3.99.97,6.02,1.21,3.98.47,8.04.32,11.96-.51,7.91-1.66,12.89-8.05,17.25-14.36.63-.91-.88-1.74-1.5-.83Z"/>
    <path class="cls-9" d="M1289.35,414.54c-1.28,2.64-2.65,5.24-4.12,7.78-.7,1.21-1.43,2.41-2.17,3.6-.39.62-.81,1.23-1.19,1.85-.34.56-.36.76-.13,1.37,1.06,2.8,2.3,5.53,3.34,8.34,1.04,2.82,2,5.66,2.89,8.53.33,1.06,1.99.6,1.66-.45-1.79-5.76-3.89-11.41-6.27-16.95,2.78-4.25,5.29-8.67,7.5-13.24.48-.99-1.02-1.83-1.5-.83Z"/>
    <path class="cls-20" d="M1340.18,480.85c-1.77-4.09-6.83-3.72-10.18-2.1-1,.48-.12,1.96.87,1.49,1.61-.78,3.48-1.32,5.25-.78,1.62.5,2.72,1.77,2.8,3.49.13,3.18-2.02,6.51-3.87,8.94-3.88,5.09-8.97,9.39-14.25,12.95-5.38,3.63-11.22,6.57-17.3,8.83-3.37,1.26-6.84,2.36-10.42,2.84-3.26.44-7.28.63-10.23-1.1-3.66-2.14-3.23-6.88-1.7-10.21,1.55-3.36,3.99-6.26,7.01-8.4.9-.63.04-2.12-.87-1.49-2.97,2.1-5.46,4.83-7.16,8.06-1.68,3.18-2.66,7.03-1.02,10.43,1.59,3.31,5.23,4.37,8.63,4.61,4.21.3,8.44-.55,12.44-1.8,7.24-2.26,14.25-5.56,20.59-9.71,6.14-4.02,12.16-9,16.4-15.04,2.03-2.89,4.58-7.42,3.01-11.02Z"/>
    <path class="cls-4" d="M1345.6,519.97c-2.88-2.45-6.51-3.72-10.04-4.92-1.05-.36-1.46,1.31-.42,1.67,2.75.94,5.54,1.91,7.98,3.52,2.33,1.55,5.16,4.42,4.35,7.5-.74,2.86-4.3,4.67-6.7,5.92-2.84,1.48-5.89,2.52-9.01,3.22-6.71,1.51-13.67,1.36-20.48.69-6.87-.68-13.79-1.68-20.44-3.59-3.15-.91-7.61-2.02-8.65-5.63-.96-3.3,2.53-5.53,5.42-5.51,1.11,0,1.09-1.71-.02-1.72-2.76-.02-5.74,1.43-6.86,4.07-1.27,2.98.52,6.07,2.99,7.76,3.03,2.07,7.1,2.89,10.62,3.7,3.95.91,7.95,1.54,11.97,2.05,7.92,1.02,15.99,1.64,23.9.23,3.6-.64,7.13-1.72,10.43-3.3,2.84-1.36,6.33-3.21,7.93-6.07,1.93-3.47-.26-7.3-2.97-9.61Z"/>
    <path class="cls-24" d="M1345.21,501.75c-3.52-3.1-8.28-3.53-12.77-3.74-1.11-.05-1.08,1.67.02,1.72,3.68.18,7.62.43,10.74,2.61,3.11,2.18,4.19,5.82,2.74,9.35-1.4,3.41-4.52,5.8-7.48,7.8-3.04,2.05-6.3,3.77-9.69,5.14-6.8,2.74-14.09,4.18-21.41,4.55-3.87.2-7.79.15-11.64-.31-3.8-.46-7.78-1.29-11.22-3.04-1.78-.91-3.42-2.2-4.2-4.1-.73-1.78-.66-3.8-.11-5.61,1.16-3.82,4.59-6.36,8-8.09.99-.5.12-1.98-.87-1.49-3.33,1.69-6.57,4.11-8.19,7.58-1.52,3.27-1.55,7.32.74,10.24,2.42,3.08,6.7,4.4,10.36,5.28,4.35,1.05,8.86,1.38,13.32,1.37,8.25-.02,16.58-1.29,24.32-4.19,3.8-1.42,7.46-3.22,10.85-5.43,3.29-2.15,6.77-4.72,8.51-8.37,1.86-3.9,1.3-8.35-2.01-11.26Z"/>
    <path class="cls-9" d="M1325.58,427.21c-3.06-7.68-5.6-15.56-7.6-23.59-.27-1.08-1.92-.62-1.66.45,2,8.03,4.53,15.91,7.6,23.59.41,1.02,2.07.57,1.66-.45Z"/>
    <path class="cls-17" d="M1321.71,315.13c1.98,3.59,2.27,7.92,1.77,12-.41,3.33-1.41,6.74-3.63,9.26-.09.09-.17.19-.27.27.65-4.49,1.13-8.99,1.31-13.51.77-2.94.77-6.14-.52-8.88-.81-1.74-2.18-3.23-3.85-4.14,2.17,1.05,4.02,2.87,5.19,5Z"/>
    <path class="cls-21" d="M1310.45,384.03c-.53,2.6-1.08,5.21-1.62,7.8-1.46-.67-2.94-1.34-4.4-2.01-.65-2.47-1.25-4.95-1.82-7.42,2.65.27,5.28.82,7.84,1.63Z"/>
    <path class="cls-21" d="M1286.93,435.5l-.96-12.73c2.82-5.14,4.38-10.95,4.52-16.81.03-1.03,0-2.1-.17-3.13l2.65-.43c.89,5.4,1.8,10.79,2.73,16.19.89,5.14,1.84,10.29,3.27,15.3-.43,1.25-.64,2.63-.81,3.95-.22,1.74-.46,3.47-.65,5.22-.48,4.23-.79,8.51-.5,12.68l-.95,23.61c-.33,4.78-3.88,3.87-5.12,3.4-.27-.1-.43-.19-.43-.19l-3.57-47.07Z"/>
    <path class="cls-9" d="M1324.08,636.72c-6.92-.09-14.25.76-20.2,4.58-5.05,3.23-8.86,8.47-9.31,14.56-.08,1.1,1.64,1.08,1.72-.02.42-5.67,4.25-10.54,9-13.39,5.62-3.37,12.38-4.09,18.81-4,1.11.01,1.09-1.7-.02-1.72Z"/>
    <path class="cls-9" d="M1309.13,344.69c-1.04,6.1-2,12.2-2.89,18.32-.16,1.08,1.51,1.51,1.67.42.89-6.12,1.85-12.23,2.89-18.32.18-1.08-1.48-1.51-1.67-.42Z"/>
    <path class="cls-9" d="M1300.56,340.68c-.81,6.98-1.26,14-1.36,21.03-.02,1.11,1.7,1.09,1.72-.02.1-7.03.55-14.04,1.36-21.03.13-1.1-1.59-1.07-1.72.02Z"/>
    <path class="cls-9" d="M1293.96,349.03c-.04-1.11-1.76-1.09-1.72.02.17,4.45.61,8.88,1.3,13.28.17,1.09,1.83.63,1.66-.45-.67-4.25-1.08-8.54-1.24-12.84Z"/>
    <path class="cls-9" d="M1289.08,362.11c-.29-1.19-.58-2.39-.88-3.58-.11-.44-.62-.74-1.06-.6-.45.15-.72.59-.6,1.06.29,1.19.58,2.39.88,3.58.11.44.62.74,1.06.6.45-.15.72-.59.6-1.06Z"/>
    <path class="cls-9" d="M1313.81,422.09c-1.03-6.91-3.19-13.58-5.1-20.29-1.07-3.77-2.06-7.57-2.75-11.43-.19-1.09-1.85-.63-1.66.45,1.21,6.75,3.34,13.28,5.18,19.88,1.88,6.75,3.18,13.51,3.4,20.53.13,4.1,0,8.2-.15,12.3-.04,1.11,1.68,1.08,1.72-.02.27-7.15.42-14.32-.64-21.42Z"/>
  </g>
  <g id="left">
    <rect class="cls-21" x="519.46" y="489.05" width="27.49" height="83.73" rx="6.12" ry="6.12" transform="translate(-66.33 76.23) rotate(-7.7)"/>
    <path class="cls-12" d="M777.21,666.25c-2.85,7.37-6.51,14.59-12.13,20.14-7.3,7.22-17.34,11.03-27.38,13.18-13.54,2.9-27.67,3.11-41.3.62-5.04-.91-10.05-2.22-14.59-4.57-8.82-4.59-15.26-12.91-19.23-22.01-3.97-9.11-5.71-19.02-6.98-28.87-3.27-25.13-3.82-50.61-1.63-75.86.02-.24.03-.46.07-.7,20.91-5.83,42.43-9.76,64.1-9.47,23.73.31,47.74,5.95,67.73,18.68,2.25,29.97,2.17,60.85-8.66,88.87Z"/>
    <path class="cls-12" d="M649.57,637.05c-.48,17.08-1.48,34.25-5.19,50.94-1.31,5.95-3.02,11.94-6.34,17.05-3.16,4.85-7.6,8.66-12.53,11.75-.57-3.11-1.19-6.2-1.89-9.28-16.19,18.56-33.91,35.83-52.88,51.54-1.34,1.12-2.84,2.27-4.59,2.34-1.7.09-3.27-.91-4.66-1.91-6.2-4.38-11.89-9.49-16.93-15.19-3.16-3.57-6.08-7.44-7.94-11.82-1.53-3.63-2.29-7.53-3.02-11.39-7.61-39.8-13.46-79.95-17.56-120.28-3.49-7.77-6.94-15.55-10.29-23.37-1.62-3.78-3.2-7.6-4.35-11.53-.43-1.44-.79-2.99-.36-4.43.31-1.1,1.05-1.99,1.77-2.87,1.46-1.79,2.96-3.54,4.52-5.28-.46-1.2-.89-2.42-1.29-3.64-.43-1.32-.82-2.75-.5-4.12.36-1.43,1.5-2.54,2.6-3.54,3.35-3.09,6.87-6.03,10.52-8.76l.53-.03c1.05,4.26,2.01,8.52,2.85,12.84,2.73,1.6,5.4,3.32,7.96,5.17-3.28-9.11-3.02-19.47.81-28.37.69-1.58,1.53-3.18,2.87-4.26,1.03-.82,2.54-1.29,3.64-.57.81.53,1.15,1.53,1.43,2.46,2.73,9.25,4.47,18.84,8.49,27.6,2.44,5.28,5.69,10.17,8.11,15.47.46,1.03.91,2.1.96,3.21.07,1.19-.31,2.35-.67,3.47-2.35,7.17-4.69,14.35-7.05,21.52,5.69,24.52,11.84,48.93,18.42,73.23,11.46-25.52,23.94-50.53,38.99-74.09,2.82-4.42,5.81-8.87,9.98-12.05,8.28-6.32,19.26-6.39,29.73-8.09,4.24,21.74,4.49,44.15,3.85,66.32Z"/>
    <path class="cls-11" d="M808.21,806.71c-.41.62-.84,1.24-1.27,1.84-13.39,18.96-33,33.48-55.08,40.68-19.8,6.46-40.99,7.08-61.82,7.06-24.28-.02-48.94-.88-72.26-7.3-.67-.19-1.34-.38-1.99-.58.14-20.93,2.51-41.81,7.01-62.25.33-1.44.65-2.9.62-4.4-.03-1.92-.69-3.82-.58-5.74.14-2.23,1.39-4.38,3.28-5.6.64-.41,1.37-.76,1.68-1.44.55-1.24-.6-2.49-1.39-3.57-2.77-3.83-.7-10.11,3.78-11.57l.53-.12c-2.63-11.67-5.67-23.22-9.11-34.66,1.32-.7,2.63-1.46,3.9-2.25,4.93-3.09,9.37-6.91,12.53-11.75,3.32-5.1,5.04-11.1,6.34-17.05,3.71-16.69,4.71-33.86,5.19-50.94.64-22.17.4-44.58-3.85-66.32,2.8-.45,5.59-1.01,8.25-1.86-.4,4.57-.67,9.16-.89,13.77,1.05,17.44,4.21,34.68,8.04,51.71,1.98,8.75,4.09,17.48,6.26,26.17,1.86,7.51,3.97,15.12,8.09,21.74,7.94,12.79,22.77,17.6,37.1,18.51,7.77.48,15.67.07,23.34-1.22,5.67-.96,11.29-2.49,16.6-4.73,4.64-2.11,8.94-4.85,12.56-8.44,5.62-5.55,9.28-12.77,12.13-20.14,10.83-28.01,10.91-58.89,8.66-88.87.82.52,1.65,1.05,2.46,1.6,1.43.96,2.82,1.96,4.28,2.85.09.05.19.12.27.15.58.36,1.15.7,1.75,1.01h.02s.03.02.05.02c2.61,21.05,2.23,42.38,1.87,63.6-.21,11.96-.43,23.99-2.05,35.83-.57,4.14-1.31,8.27-2.27,12.34-4.67,19.61-14.49,37.55-21.74,56.37.38.38.74.77,1.08,1.17,1.27,1.46,2.37,3.18,2.44,5.1.07,1.92-1.22,3.99-3.13,4.21,13.54,14.09,27.22,28.36,37.29,45.06Z"/>
    <path class="cls-12" d="M1042.33,600.12c-.02.77-.52,1.46-1.01,2.06-4.88,5.65-12.32,8.28-19.39,10.69-1.05.34-2.08.7-3.02,1.25-1.2.72-2.18,1.75-3.14,2.77-2.65,2.78-5.28,5.55-7.94,8.34,7.22-2.44,14.44-4.9,21.67-7.36,1.75-.6,4.19-.95,5.04.72.62,1.25-.22,2.72-1.12,3.76-3.45,4.04-8.28,6.58-12.99,9.04-4.35,2.27-8.73,4.55-13.37,6.08-2.18.72-4.42,1.27-6.44,2.35-1.98,1.05-3.66,2.56-5.38,3.97-10.38,8.54-22.98,14.35-36.18,16.69-20.59,22.84-42.38,44.58-64.43,65.99-4.54,4.42-9.49,9.01-15.71,10.11-7.1,1.25-14.09-2.32-20.26-6.03-22.93-13.78-43.67-30.85-64.12-48.1,1.62-11.84,1.84-23.87,2.05-35.83.36-21.22.74-42.55-1.87-63.6v-.02c3.4-.17,6.84.43,9.98,1.74,5.22,2.18,9.43,6.22,13.35,10.33,22.39,23.58,39.08,52.43,63.53,73.85,7.32-10.53,19.97-15.97,31.76-21.17,11.81-5.22,34.73-17.13,34.73-17.13,9.49-18.72,17.63-38.08,24.37-57.95,1.07-3.2,2.13-6.43,3.95-9.26.55-.88,1.29-1.77,2.32-1.89.82-.1,1.62.34,2.2.93,2.11,2.06,2.1,5.43,1.68,8.35-.43,3.16-1.13,6.29-2.1,9.33-.79,2.46-1.75,4.9-1.94,7.48-.15,2.15.22,4.3.6,6.41.26,1.46.53,2.92.79,4.38l-6.56,7.06c2.27-2.29,4.47-4.64,6.56-7.06,3.52-4.02,6.79-8.21,9.85-12.58,1.22-1.75,2.42-3.54,3.95-5.02,1.43-1.39,3.13-2.47,4.81-3.54,6.44-4.09,12.96-8.06,19.52-11.93,1.31-.77,2.7-1.56,4.21-1.53.43,0,.89.1,1.15.45.21.26.24.6.24.93.14,4.88-3.32,9.06-6.82,12.46-3.25,3.14-6.7,6.08-10.35,8.78-1.07.79-2.15,1.56-3.04,2.54-.67.77-1.2,1.63-1.74,2.49-2.65,4.3-5.29,8.58-7.91,12.87,4.21-4.12,8.23-8.44,12.06-12.92,1.43-1.65,2.84-3.35,4.61-4.62,1.51-1.07,3.23-1.8,4.95-2.47,3.99-1.58,8.08-2.94,12.22-4.06,1.46-.41,2.96-.77,4.47-.84.79-.03,1.65.07,2.17.65.7.79.38,2.03-.05,2.99-1.63,3.57-4.31,6.62-7.41,9.06-3.09,2.44-6.58,4.33-10.12,6.03-.69.33-1.37.65-1.98,1.12-.82.62-1.44,1.46-2.06,2.29-1.89,2.56-3.83,5.07-5.83,7.54.72-.65,1.44-1.34,2.17-2.03,1.75-1.67,3.47-3.4,5.57-4.62,2.27-1.34,4.88-2.01,7.46-2.56,5.19-1.12,10.45-1.82,15.74-2.13.96-.05,1.96-.09,2.85.26.89.34,1.68,1.17,1.68,2.13Z"/>
    <path class="cls-21" d="M566.87,662.76c-7.53,10.09-13.18,21.5-16.57,33.63-.98,3.51-1.76,7.08-2.35,10.67-.18,1.08,1.49,1.51,1.67.42,2.6-15.72,8.94-30.75,18.48-43.52.65-.87-.57-2.09-1.23-1.2Z"/>
    <path class="cls-21" d="M631.89,698.24c-7.38,7.82-14.77,15.65-22.15,23.47-.76.8.47,2.01,1.23,1.2,7.38-7.82,14.77-15.65,22.15-23.47.76-.8-.47-2.01-1.23-1.2Z"/>
    <path class="cls-21" d="M570.14,754.21c-2.18-4.73-7.56-7.18-12.57-5.86-1.07.28-.62,1.94.45,1.66,4.33-1.14,8.77,1.03,10.63,5.07.46,1.01,1.94.13,1.49-.87Z"/>
    <path class="cls-21" d="M512.19,563.24c-1.95-4.73-3.9-9.46-5.85-14.19-.42-1.01-2.08-.57-1.66.45,1.95,4.73,3.9,9.46,5.85,14.19.42,1.01,2.08.57,1.66-.45Z"/>
    <path class="cls-21" d="M534.19,557.8c-2.08-3.47-3.5-7.28-4.2-11.27-.19-1.09-1.85-.63-1.66.45.73,4.12,2.22,8.09,4.38,11.68.57.95,2.05.08,1.49-.87Z"/>
    <path class="cls-21" d="M755.38,758.97c-3.69.08-7.27.96-10.84,1.79-3.72.86-7.46,1.65-11.21,2.36-7.56,1.44-15.19,2.59-22.84,3.43-15.09,1.65-30.38,2.24-45.55,1.42-8.37-.45-16.73-1.57-24.68-4.31-1.04-.36-1.46,1.31-.42,1.67,6.99,2.42,14.33,3.58,21.69,4.14,7.57.58,15.2.64,22.8.49,15.27-.31,30.52-1.81,45.56-4.47,4.24-.75,8.46-1.59,12.66-2.53,3.5-.78,6.99-1.75,10.57-2.12-1.73,1.41-3.78,2.43-5.75,3.47-2.69,1.42-5.42,2.76-8.19,4.01-5.7,2.58-11.57,4.8-17.55,6.66-11.79,3.66-24.01,5.9-36.34,6.63-6.96.41-13.94.34-20.88-.2-1.1-.09-1.08,1.63.02,1.72,25.18,1.97,50.75-2.41,73.88-12.54,3.25-1.42,6.45-2.96,9.59-4.61,2.88-1.51,5.98-3,8.1-5.55.46-.55.16-1.48-.62-1.46Z"/>
    <path class="cls-11" d="M548.14,446.49l-117.51,30.97c-8.56,2.25-17.4-2.9-19.67-11.46l-2.41-9.17c-2.25-8.56,2.9-17.42,11.46-19.67l117.51-30.97c8.56-2.25,17.4,2.9,19.67,11.46l2.41,9.17c2.27,8.56-2.9,17.4-11.46,19.67Z"/>
    <path class="cls-4" d="M533.25,410.18c-.5,6.96-4.69,10.97-10.26,13.84-6.98,3.63-16.16,5.44-22.77,9.01-6.09,3.27-10.01,8.05-8.11,17.08,1,3.75,3.71,10.59-1.17,12.78-2.29.6-4.59,1.23-6.88,1.9-7.74,2.23-15.51,4.75-23.33,7.03-7.86,2.31-15.76,4.38-23.75,5.67-4.46.75-8.92,1.23-13.43,1.4-14.55-2.88-20.5-24.35-13.93-36.32,3.88-4.32,9.17-6.61,14.78-8.3,4.96-1.48,10.15-2.52,14.84-4.02,2.08-.44,5.07-1.21,8.74-2.21,6.3-1.71,14.55-4.11,23.43-6.65,7.65-2.19,15.76-4.46,23.5-6.53,8.82-2.31,17.14-4.34,23.77-5.55,9.17-1.69,15.12-1.83,14.55.88Z"/>
    <path class="cls-21" d="M526.92,496.03c-1.09,0-2.05-.8-2.22-1.91l-2.97-19.68c-.17-1.16.57-2.25,1.71-2.52l52.97-12.45-9.29-40.68-16.64,4.54c-1.2.32-2.43-.38-2.76-1.58-.33-1.2.38-2.43,1.58-2.76l18.9-5.16c.59-.16,1.22-.08,1.75.24.53.31.9.83,1.04,1.43l10.31,45.14c.27,1.21-.47,2.41-1.68,2.69l-53.12,12.49,2.66,17.63c.19,1.23-.66,2.37-1.89,2.56-.11.02-.23.03-.34.03Z"/>
    <path class="cls-21" d="M549.35,441.1c-9-6.49-8.85-18.85-7.15-28.64.25-1.42-1.93-1.98-2.18-.55-1.91,10.97-1.7,23.99,8.24,31.16,1.17.84,2.25-1.13,1.09-1.97Z"/>
    <path class="cls-21" d="M514.7,416.55c-2.38,4-6.13,6.79-10.3,8.75-2.1.98-4.29,1.74-6.52,2.37-2.4.67-4.9,1.04-7.23,1.92-9.05,3.39-8.44,13.63-12.09,21.02-2.36,4.78-6.24,8.61-10.99,11-1.3.65-.15,2.59,1.13,1.94,4.14-2.08,7.67-5.22,10.23-9.09,2.52-3.79,3.55-8.08,4.79-12.39,1.28-4.44,3.09-8.72,7.75-10.41,2.34-.85,4.83-1.22,7.22-1.9,2.21-.63,4.38-1.4,6.47-2.36,4.68-2.13,8.86-5.32,11.52-9.78.74-1.24-1.23-2.33-1.97-1.09Z"/>
    <g>
      <path class="cls-4" d="M426.18,451.14c-7.94,2.55-11.86,3.8-19.54,6.25,11.35-56.14-37.21-118.36-73.02-155.95-38.15-40.05-81.23-75-120.07-114.34C132.84,105.34,40.72,32.56-82.01,43.59c4.34-6.89,7.09-10.23,13.6-16.72C53.59,18.36,152.65,97.47,230.98,180.76c38.95,41.41,83.62,76.57,123.8,116.7,34.15,34.1,89.28,100.31,71.41,153.68Z"/>
      <path class="cls-2" d="M426.18,451.14c-7.94,2.55-11.86,3.8-19.54,6.25,11.35-56.14-37.21-118.36-73.02-155.95-38.15-40.05-81.23-75-120.07-114.34C132.84,105.34,40.72,32.56-82.01,43.59c4.34-6.89,7.09-10.23,13.6-16.72C53.59,18.36,152.65,97.47,230.98,180.76c38.95,41.41,83.62,76.57,123.8,116.7,34.15,34.1,89.28,100.31,71.41,153.68Z"/>
      <path class="cls-28" d="M446.66,444.37c-8.36,2.84-12.53,4.21-20.48,6.76,17.87-53.37-37.26-119.58-71.41-153.68-40.18-40.13-84.85-75.29-123.8-116.7C152.65,97.47,53.59,18.36-68.41,26.87c6.51-6.49,10.29-9.63,18.79-15.7C72.62,5.56,174.85,87.31,249.81,174.13c38.16,44.19,83.93,79.38,126.08,119.48,34.65,32.96,90.43,97.52,70.76,150.77Z"/>
      <path class="cls-22" d="M467.66,437.11c-8.43,2.97-12.64,4.43-21.01,7.27,19.66-53.25-36.12-117.81-70.76-150.77-42.15-40.1-87.92-75.28-126.08-119.48C174.85,87.31,72.62,5.56-49.61,11.17c8.5-6.07,13.22-9.02,23.61-14.68,62.73-3.7,136.02,27.45,187.22,62.09,43.78,29.62,76.58,67.92,108.72,109.18,36.16,46.43,81.26,81.18,124.75,120.25,36.76,33.02,92.44,93.79,72.98,149.09Z"/>
      <path class="cls-23" d="M488.98,429.53c-8.99,3.16-12.89,4.61-21.32,7.58,19.46-55.3-36.22-116.08-72.98-149.09-43.5-39.07-88.6-73.82-124.75-120.25-32.14-41.27-64.93-79.57-108.72-109.18C110.01,23.95,36.72-7.2-26.01-3.5-16.82-8.55-7.33-12.84,2.23-17.12c63.24-2.66,137.52,31.05,187.79,67.65,41.81,30.44,72.19,69.07,101.17,111.22,32.96,47.95,75.53,81.93,119.58,119.14,40.36,34.09,95.76,89.42,78.22,148.64Z"/>
      <path class="cls-19" d="M511.15,421.48c-8.61,3.29-13.19,4.89-22.17,8.05,17.54-59.22-37.86-114.55-78.22-148.64-44.06-37.21-86.63-71.19-119.58-119.14-28.97-42.15-59.36-80.78-101.17-111.22C139.75,13.93,65.47-19.78,2.23-17.12c10.79-4.44,21.53-8.51,32.53-12.38,62.62-1.82,137.07,35.12,185.38,72.87,39.7,31.03,67.55,70,93.17,112.76,29.58,49.37,68.3,82.57,112.73,118.13,41.44,33.17,103.03,86.46,85.12,147.21Z"/>
      <path class="cls-25" d="M531.24,413.03c-7.28,3.47-11.47,5.15-20.08,8.44,17.91-60.76-43.68-114.05-85.12-147.21-44.44-35.57-83.15-68.77-112.73-118.13-25.62-42.76-53.47-81.73-93.17-112.76C171.83,5.62,97.38-31.33,34.76-29.5c12.11-4.08,24.38-7.7,36.75-10.93,30.44-.34,62.88,13.49,90.31,24.99,29.32,12.29,57.8,27.76,82.9,47.39,41.04,32.09,68.18,73.3,91.4,119.04,27.08,53.34,64.41,86.85,111.68,122.83,40.48,30.81,104.25,80.11,83.44,139.21Z"/>
    </g>
    <path class="cls-4" d="M436.99,477.48c-4.46.75-8.92,1.23-13.43,1.4-14.55-2.88-20.5-24.35-13.93-36.32,3.88-4.32,9.17-6.61,14.78-8.3l12.57,43.22Z"/>
    <path class="cls-2" d="M436.99,477.48c-4.46.75-8.92,1.23-13.43,1.4-14.55-2.88-20.5-24.35-13.93-36.32,3.88-4.32,9.17-6.61,14.78-8.3l12.57,43.22Z"/>
    <path class="cls-28" d="M460.74,471.81c-7.86,2.31-15.76,4.38-23.75,5.67l-12.57-43.22c4.96-1.48,10.15-2.52,14.84-4.02,2.08-.44,5.07-1.21,8.74-2.21l12.74,43.78Z"/>
    <path class="cls-22" d="M484.07,464.79c-7.74,2.23-15.51,4.75-23.33,7.03l-12.74-43.78c6.3-1.71,14.55-4.11,23.43-6.65l12.63,43.41Z"/>
    <path class="cls-23" d="M492.12,450.11c1,3.75,3.71,10.59-1.17,12.78-2.29.6-4.59,1.23-6.88,1.9l-12.63-43.41c7.65-2.19,15.76-4.46,23.5-6.53l5.3,18.18c-6.09,3.27-10.01,8.05-8.11,17.08Z"/>
    <path class="cls-19" d="M523,424.02c-6.98,3.63-16.16,5.44-22.77,9.01l-5.3-18.18c8.82-2.31,17.14-4.34,23.77-5.55l4.3,14.72Z"/>
    <path class="cls-25" d="M533.25,410.18c-.5,6.96-4.69,10.97-10.26,13.84l-4.3-14.72c9.17-1.69,15.12-1.83,14.55.88Z"/>
    <g>
      <path class="cls-21" d="M795.01,552.28c-.46,7.24-1.8,14.42-3.97,21.33-1.5,4.74-3.39,9.33-5.62,13.77-2.41,5.28-5.07,10.43-7.25,15.79-2.73,6.72-4.28,13.68-4.55,20.93-.53,13.95,2.7,27.67,4.07,41.49,1.31,13.23.69,26.95-6.14,38.72-6.29,10.86-16.81,19.16-28.96,22.41-13.28,3.56-27.87,1.24-39.3-6.43-10.53-7.06-18.08-17.86-22.81-29.51-5.72-14.06-7.32-29.42-8.01-44.46-.72-16.03-.34-32.21-2.89-48.1-1.1-6.96-2.47-14.4-6.69-20.23-3.68-5.09-8.59-6.46-17.65-7.37-2.73-1.05-4.95-2.89-6.56-5.31-3.87-5.76-3.56-12.98-1.15-19.23,2.85-7.34,8.09-13.28,12.18-19.9,2.08-3.35,3.75-6.89,4.83-10.67,1.07-3.76,1.6-7.66,1.8-11.57.43-7.87-.36-15.76-.67-23.61-.29-7.46-.14-14.97,1.68-22.26,1.6-6.44,4.35-12.63,7.99-18.2,7.58-11.57,18.96-20.31,32.24-24.27,13.94-4.14,29.42-3.13,42.57,3.14,11.98,5.72,21.86,15.71,27.69,27.62,3.02,6.17,4.83,12.73,5.65,19.56.93,7.53.86,15.14,1.34,22.7.5,7.44,1.55,15,4.88,21.74,3.4,6.86,9.23,12.2,12.29,19.25,3.06,7.1,3.45,15.04,2.99,22.67Z"/>
      <path class="cls-21" d="M797.86,581.05c4.08-9.46,7.02-19.7,6.71-30.09-.15-5.1-1.12-10.17-3.02-14.9-1.81-4.5-4.32-8.65-6.96-12.71-2.73-4.2-5.6-8.32-7.97-12.74-2.54-4.75-4.21-9.8-5.3-15.06-2.18-10.47-2.56-21.26-6.02-31.45-3.1-9.13-8.12-17.58-14.64-24.68-1.64-1.79-3.38-3.48-5.2-5.09-.83-.73-2.03.49-1.2,1.23,7.23,6.39,13.05,14.26,17.03,23.05,4.32,9.54,5.55,19.73,7.08,29.98.77,5.18,1.71,10.37,3.43,15.33,1.59,4.6,3.92,8.85,6.51,12.96,5.29,8.38,11.47,16.37,13.6,26.27,2.2,10.2.35,20.83-3.03,30.55-3.47,9.97-9.07,18.84-13.51,28.35-2.17,4.64-4,9.49-4.84,14.57-.84,5.14-.58,10.35.14,15.5,1.43,10.26,4.57,20.42,3.65,30.88-1.52,17.21-12.8,33.2-28.31,40.7-1.94.93-3.93,1.71-5.98,2.37-1.05.34-.6,1.99.45,1.66,16.5-5.27,29.46-19.44,34-36.07,1.14-4.15,1.74-8.47,1.73-12.78,0-5.4-.93-10.76-1.93-16.06-1.04-5.54-2.2-11.08-2.51-16.72-.29-5.44.42-10.76,2.14-15.94,3.41-10.24,9.66-19.24,13.92-29.12Z"/>
      <path class="cls-21" d="M685.15,434.2c-9.34,1.96-16.29,9.14-20.7,17.29-5.24,9.68-6.73,20.57-8.55,31.28-.99,5.83-2.11,11.67-4.04,17.27-1.99,5.78-5.07,11.03-8.38,16.14-6.33,9.76-13.73,19.98-13.9,32.11-.08,5.62,1.72,11.01,5.4,15.29,3.35,3.9,8.2,6.5,13.42,6.25,1.1-.05,1.09-1.77-.02-1.72-9.99.46-16.81-9.6-17.07-18.7-.33-11.67,6.73-21.78,12.84-31.11,3.16-4.82,6.23-9.73,8.37-15.11,2.08-5.21,3.36-10.68,4.38-16.18,1.93-10.42,2.92-21.24,7.26-31.02,4.1-9.23,11.11-17.95,21.44-20.12,1.09-.23.62-1.88-.45-1.66Z"/>
    </g>
    <g>
      <path class="cls-29" d="M864.46,1163.36h-82.73c-7.8-30.18-16.58-60.1-26.33-89.69-2.25-1.12-4.23-2.9-5.65-4.98-2.66-3.85-3.76-8.56-4.66-13.15-4.61-23.25-6.08-47.59-14.56-69.53-7.29,12.29-15.21,24.21-23.34,35.95-4.86,6.99-9.93,14.26-11.24,22.67-.46,2.97-.64,6.41-3.01,8.27-.86.67-1.99,1.13-2.39,2.15-.86,2.15,2.41,4.24,1.74,6.44-.6,1.99-3.37,1.82-5.41,2.18-4.04.69-6.67,4.93-7.05,9.02-.36,4.09.96,8.11,2.01,12.1,7.03,26.78.74,56.63-16.07,78.57h-93.33c19.95-104.02,35.08-208.94,45.34-314.37,23.32,6.43,47.98,7.29,72.26,7.3,20.83.02,42.02-.6,61.82-7.06,22.08-7.2,41.69-21.72,55.08-40.68,21.31,23.01,27.41,56.69,28.87,88.28,1.77,38.17-1.6,76.56-9.97,113.85-2.42,10.76-4.97,23.08,1.53,32,.93,1.27,2.06,2.51,2.37,4.06.81,3.95-3.99,7.37-3.32,11.34.24,1.43,1.15,2.63,2.03,3.78,22.13,29.01,34.85,65.05,36,101.5Z"/>
      <path class="cls-21" d="M754.8,940.13c-7.63,13.94-15.25,27.89-22.88,41.83-.53.97.97,1.81,1.5.83,7.63-13.94,15.25-27.89,22.88-41.83.53-.97-.97-1.81-1.5-.83Z"/>
      <path class="cls-21" d="M819.3,929.99c-12.26,7.79-26.84,11.64-41.35,11.05-4.13-.17-8.22-.71-12.25-1.61-1.08-.24-1.5,1.43-.42,1.67,14.51,3.21,29.94,1.85,43.68-3.82,3.9-1.61,7.65-3.54,11.21-5.8.93-.59.07-2.08-.87-1.49Z"/>
      <path class="cls-21" d="M760.6,1053.99c-1.11,4.46-2.23,8.92-3.34,13.38-.27,1.07,1.4,1.49,1.67.42,1.11-4.46,2.23-8.92,3.34-13.38.27-1.07-1.4-1.49-1.67-.42Z"/>
      <path class="cls-21" d="M819.91,1057.38c-9,5.64-18,11.28-27,16.92,4.8-10.79,12.44-20.22,22.13-27.02.9-.63.04-2.12-.87-1.49-10.71,7.52-19.11,18.11-23.91,30.29-.28.72.39,1.66,1.18,1.16,9.77-6.13,19.55-12.25,29.32-18.38.94-.59.07-2.07-.87-1.49Z"/>
      <path class="cls-21" d="M681.39,1051.69c-7.74-.45-15.54.49-22.95,2.78-3.37,1.04-6.85,2.27-9.9,4.08-2.54,1.51-4.86,3.67-5.37,6.71-.1.58.26,1.02.84,1.07,8.86.69,17.76.8,26.64.33,1.1-.06,1.09-1.78-.02-1.72-8.51.45-17.04.36-25.54-.26.82-2.36,2.96-3.94,5.14-5.1,3.07-1.64,6.45-2.81,9.79-3.78,6.94-2.01,14.17-2.79,21.38-2.38,1.11.06,1.08-1.66-.02-1.72Z"/>
      <path class="cls-21" d="M636.36,869.49c-.35-2.07-.99-4.04-1.83-5.96-.45-1.01-1.93-.14-1.49.87,3.75,8.46,1.68,18.14-1.59,26.4-3.34,8.43-7.98,16.4-9.98,25.32-2.1,9.33-1.46,18.95-1.44,28.43.02,9.95-.94,19.85-2.29,29.69-2.73,19.91-6.15,39.75-9.27,59.6l-18.83,119.65c-.38,2.44-.77,4.89-1.15,7.33-.17,1.08,1.49,1.51,1.67.42,3.17-20.14,6.34-40.27,9.51-60.41,3.17-20.14,6.34-40.27,9.51-60.41,3.16-20.08,6.46-40.15,9.45-60.26,1.46-9.8,2.69-19.66,3.03-29.57.34-9.86-.67-19.82.69-29.62,1.32-9.52,5.74-17.88,9.48-26.6,3.34-7.79,5.99-16.33,4.54-24.88Z"/>
      <path class="cls-21" d="M727.36,945.6c-17.59,7.1-37.47,7.82-55.59,2.29-5.13-1.57-10.09-3.65-14.81-6.2-.97-.53-1.81.98-.83,1.5,16.95,9.17,36.96,12.14,55.89,8.66,5.41-.99,10.7-2.54,15.8-4.59,1.02-.41.57-2.07-.45-1.66Z"/>
    </g>
    <g>
      <g>
        <path class="cls-19" d="M804.81,795.42c.03.21.07.43.1.65-7.53,21.46-23.58,39.9-43.93,50.13-17.29,8.68-38.05,12.15-51.13,26.41-11.57,12.63-14.33,30.87-22.48,45.94-9.21,16.98-25.74,29.83-44.49,34.54-13.08,3.28-26.86,2.73-39.96,5.93-6.62,1.62-13.28,4.61-18.59,8.87-.14-10.52,3.42-21.05,10.72-28.67-.27-.27-.53-.57-.79-.86,13.52,3.13,28.6-1.94,39.89-10.52,13.13-9.98,22.43-24.03,32.29-37.22,12.39-16.62,26.52-32.67,44.92-42.19,11.93-6.19,25.16-9.33,37.89-13.63,15.45-5.21,30.56-12.3,42.55-23.36,5.07-4.66,9.52-10.09,12.99-16.03Z"/>
        <path class="cls-25" d="M855.42,990.11c-21.38,1.13-42.88,0-64.02-3.39,9.61-15.55,12.92-34.13,14.68-52.33,3.95-40.64,6-71.87-3.54-111.57.46-1.58.86-3.18,1.19-4.78,1.31-6.44,1.67-13.01,1.62-19.61,2.47,13.18,6.34,26.1,11.5,38.5,12.58,30.14,32.89,57.19,40.68,88.92,4.3,17.51,4.55,35.76,2.73,53.74-.22,2.32-.5,4.64-.79,6.94-.12.93-.27,1.91-.93,2.6-.77.81-2.01.93-3.11.98Z"/>
        <path class="cls-25" d="M760.99,846.2c20.35-10.23,36.4-28.67,43.93-50.13.14.79.29,1.58.43,2.37.05,6.6-.31,13.16-1.62,19.61-.33,1.6-.72,3.2-1.19,4.78-2.78,9.5-8.03,18.39-16.12,23.96-9.97,6.84-23.66,8.44-31.14,17.94-6.51,8.3-6.1,19.83-7.22,30.33-1.48,14.11-6.58,28.27-16.67,38.25-11.26,11.14-27.31,15.88-42.91,18.59-15.6,2.72-31.66,3.88-46.44,9.59-18.84,7.29-34.66,22.03-43.26,40.3.58-1.74-.98-3.37-2.3-4.62-7.96-7.51-12.05-18.39-12.15-29.28,5.31-4.26,11.98-7.25,18.59-8.87,13.1-3.2,26.88-2.65,39.96-5.93,18.75-4.71,35.28-17.56,44.49-34.54,8.15-15.07,10.91-33.31,22.48-45.94,13.08-14.26,33.84-17.74,51.13-26.41Z"/>
        <path class="cls-22" d="M693.83,835.12c4.24-.53,8.47-1.19,12.68-1.96l.64,3.23c-8.92,1.67-17.67,3.85-25.68,8.06-30.59,16.09-42.29,57.38-74.05,71.08-6.26,2.7-12.92,4.12-19.69,4.92-.21-5.31.65-10.79,2.22-15.83.6-1.98,1.31-3.9,2.06-5.83,9.23-5.57,19.39-10.23,27.51-17.25,12.84-11.1,20.36-27.94,34.83-36.79,11.65-7.11,25.93-7.92,39.48-9.62Z"/>
        <path class="cls-28" d="M797.8,780.14c-9.95,14.44-23.72,26.28-39.06,34.9-16.14,9.07-33.98,14.76-52.23,18.11-4.21.77-8.44,1.43-12.68,1.96-13.54,1.7-27.82,2.51-39.48,9.62-14.47,8.85-22,25.69-34.83,36.79-8.13,7.03-18.29,11.69-27.51,17.25,3.73-9.47,8.87-18.42,11.86-28.17,2.11-6.91,2.9-14.66,1.41-21.65.12-.09.26-.15.38-.24,49.25-30.5,113.01-30.85,161.29-62.86,8.03-5.31,15.98-12.3,19.01-21.16,4.16,4.98,8.11,10.12,11.86,15.43Z"/>
        <path class="cls-2" d="M903.92,898.86c7.18,16.93,7.89,35.81,8.51,54.2-6.51-2.53-14.02-.07-19.71,4-5.69,4.06-10.14,9.61-15.36,14.26-4.81,4.3-10.72,7.99-17.1,8.27,1.82-17.98,1.56-36.23-2.73-53.74-7.79-31.72-28.1-58.77-40.68-88.92-5.16-12.39-9.02-25.31-11.5-38.5,0-.79,0-1.58-.03-2.37,8.85,21.74,24.44,40.7,44.13,53.48,10.36,6.74,21.79,11.81,31.54,19.4,10,7.82,17.99,18.2,22.94,29.9Z"/>
        <path class="cls-23" d="M804.62,794.37c.07.34.12.7.19,1.05-3.47,5.95-7.92,11.38-12.99,16.03-12,11.05-27.1,18.15-42.55,23.36-12.73,4.3-25.97,7.44-37.89,13.63-18.41,9.52-32.53,25.57-44.92,42.19-9.86,13.2-19.16,27.24-32.29,37.22-11.29,8.58-26.36,13.65-39.89,10.52-4.35-4.88-6.27-11.27-6.55-17.92,6.77-.79,13.44-2.22,19.69-4.92,31.76-13.7,43.46-54.99,74.05-71.08,8.01-4.21,16.76-6.39,25.68-8.06,7.03-1.31,14.16-2.32,21.14-3.75,17.74-3.66,35.01-10.36,49.6-21.07,9.45-6.96,17.75-15.67,23.89-25.66,1.15,1.74,2.29,3.49,3.4,5.26.03,1.15.09,2.3.1,3.45-.09.19-.19.36-.33.55-.12-.27-.22-.55-.33-.81Z"/>
        <path class="cls-22" d="M801.77,785.91c-6.14,9.98-14.44,18.7-23.89,25.66-14.59,10.71-31.86,17.41-49.6,21.07-6.98,1.43-14.11,2.44-21.14,3.75l-.64-3.23c18.25-3.35,36.09-9.04,52.23-18.11,15.35-8.63,29.11-20.47,39.06-34.9,1.34,1.91,2.66,3.83,3.97,5.77Z"/>
        <path class="cls-4" d="M781.88,759.96c1.39,1.56,2.73,3.14,4.06,4.74-3.02,8.85-10.98,15.85-19.01,21.16-48.27,32.02-112.03,32.36-161.29,62.86-.12.09-.26.15-.38.24-1.01-4.86-3.14-9.37-6.7-12.92,30.81-14.87,64.77-21.72,97.56-31.48,31.19-9.28,62.57-21.95,85.76-44.6Z"/>
      </g>
      <path class="cls-21" d="M683.31,840.7c-6.64,6.55-13.31,13.15-18.69,20.81-5.44,7.74-9.02,16.5-12.27,25.34-5.96,16.18-11.76,34.54-26.97,44.51-8.27,5.42-18.26,7.78-28.09,7.28-1.11-.06-1.08,1.66.02,1.72,8.76.44,17.66-1.35,25.43-5.45,7.66-4.04,13.66-10.36,18.21-17.64,9.93-15.86,12.84-34.94,22.54-50.91,5.61-9.25,13.38-16.9,21.04-24.45.79-.78-.44-1.98-1.23-1.2Z"/>
      <path class="cls-21" d="M790.84,784.61c-6.53,11.74-15.96,21.47-26.08,30.17-10.93,9.39-22.59,17.99-34.56,26.01-6.88,4.61-13.91,9-21.06,13.18-.96.56-.09,2.04.87,1.49,12.86-7.51,25.31-15.73,37.26-24.62,11.13-8.28,22.2-16.97,31.65-27.17,5.14-5.55,9.75-11.6,13.43-18.22.54-.97-.97-1.8-1.5-.83Z"/>
      <path class="cls-21" d="M790.39,797.79c-11.89,16.36-26.21,30.97-42.34,43.17-4.57,3.46-9.29,6.73-14.14,9.8-.93.59-.07,2.08.87,1.49,17.33-10.99,33.03-24.53,46.42-40.09,3.75-4.36,7.31-8.88,10.7-13.54.65-.89-.86-1.72-1.5-.83Z"/>
      <path class="cls-21" d="M828.12,895.53c-4.1-17.25-11.06-33.63-16.08-50.61-2.81-9.5-4.98-19.21-5.61-29.12-.07-1.1-1.79-1.09-1.72.02,1.13,17.6,6.98,34.34,12.71,50.87,2.9,8.36,5.78,16.73,8.03,25.29,2.4,9.11,4.01,18.42,4.79,27.8.87,10.56.7,21.18-.5,31.71-.12,1.1,1.6,1.07,1.72-.02,2.11-18.66.99-37.66-3.35-55.94Z"/>
      <path class="cls-21" d="M891.23,895.94c-5.07-8.15-11.6-15.34-18.91-21.53-8.19-6.93-17.4-12.49-26.11-18.72-9.08-6.5-17.79-14-23.31-23.86-.54-.97-2.03-.1-1.49.87,10.1,18.02,29.38,27.23,45.19,39.32,15.21,11.62,28.08,27.47,32.02,46.59,2.29,11.09,1.47,22.92-3.28,33.27-.46,1,1.04,1.84,1.5.83,8.45-18.41,4.83-39.97-5.62-56.77Z"/>
    </g>
    <path class="cls-21" d="M885.98,672.49c-2.9-2.75-5.8-5.5-8.71-8.25-.8-.76-2.01.47-1.2,1.23,2.9,2.75,5.8,5.5,8.71,8.25.8.76,2.01-.47,1.2-1.23Z"/>
    <path class="cls-21" d="M883.93,720.37c-2.2-2-5.13-3.08-8.1-3.06-1.11,0-1.09,1.72.02,1.72,5.05-.03,9.5,3.74,10.15,8.78.06.46.37.85.87.85.42,0,.91-.41.85-.87-.36-2.83-1.66-5.49-3.79-7.42Z"/>
    <path class="cls-21" d="M986.79,588.88c-4.22,4.78-8.44,9.56-12.66,14.33-.73.83.49,2.03,1.23,1.2,4.22-4.78,8.44-9.56,12.66-14.33.73-.83-.49-2.03-1.23-1.2Z"/>
    <path class="cls-21" d="M1005.91,590.32c-5.33,5.38-10.66,10.76-15.99,16.14-.78.79.45,1.99,1.23,1.2,5.33-5.38,10.66-10.76,15.99-16.14.78-.79-.45-1.99-1.23-1.2Z"/>
    <path class="cls-21" d="M1010.11,604.88c-.3-.3-.93-.35-1.22.01-3.79,4.93-8.12,9.41-12.92,13.36-.85.7.38,1.9,1.23,1.2,4.8-3.95,9.14-8.43,12.92-13.36.28-.37.34-.86-.01-1.22Z"/>
    <path class="cls-21" d="M1011.04,623.23c-3.43,1.18-6.86,2.37-10.28,3.55-1.04.36-.59,2.02.45,1.66,3.43-1.18,6.86-2.37,10.28-3.55,1.04-.36.59-2.02-.45-1.66Z"/>
  </g>
  <rect id="filter" class="cls-18" x="-21.43" y="-23.45" width="2277.46" height="1104.65"/>
  <g>
    <path id="bottom_shadow" class="cls-27" d="M195.22,786.15c51.93-21.77,118.42,4.06,142.85,55.51,20.4,42.95,23.97,107.99,70.29,115.45,18.83,3.03,37.24-6.43,53.78-16.06,61.45-35.78,119.18-78.17,171.9-126.26,20.81-18.98,42.07-39.54,69.11-46.7,74.06-19.58,132.62,66.96,206.45,87.42,117.89,32.67,235.85-109.79,351.27-69.03,30.83,10.89,56.17,33.85,86.21,46.83,46.19,19.95,108.56,20.91,130.57,66.8,8.11,16.91,8.3,36.52,13.32,54.63,5.02,18.11,18.16,36.73,36.65,37.14,10.85.24,20.73-5.89,29.9-11.8,87.36-56.37,174.71-112.75,262.07-169.12,36.73-23.7,79.06-48.42,121.2-37.46,27.4,7.13,48.78,28.14,72.1,44.43,45.67,31.91,102.6,46.77,157.74,41.15,30.8-3.14,62.91-12.24,91.85-1.05,39.6,15.32,57.07,62.07,64.92,104.43,5.09,27.47,7.75,57.36-5.14,82.04-15.38,29.45-48.45,43.66-79.03,55.7-78.08,30.74-157.21,61.75-240.39,71.39-78.08,9.05-158.31-.92-234.71,17.79-76.4,18.71-152.29,79.1-152.75,159.04-152.1-20.87-303.03-50.53-451.83-88.79-209.67-53.92-416.22-125.12-630.99-150.94-105.16-12.64-211.31-14.25-317.19-13.08-68.05.76-140.04,3.84-197.09,41.58-11.85,7.84-25.09,17.53-38.73,13.78-10.6-2.92-17.42-13.1-23.3-22.54-13.65-21.95-27.3-43.89-40.95-65.84-10.22-16.43-20.86-34.71-18.18-53.96,4.62-33.22,43.43-47.16,75.65-54.3,43.91-9.73,122.07-9.18,146.18-53.55,24.43-44.96,22.12-90.73,76.28-114.63Z"/>
    <path id="bottom" class="cls-14" d="M174.76,787.14c51.93-21.77,118.42,4.06,142.85,55.51,20.4,42.95,23.97,107.99,70.29,115.45,18.83,3.03,37.24-6.43,53.78-16.06,61.45-35.78,119.18-78.17,171.9-126.26,20.81-18.98,42.07-39.54,69.11-46.7,74.06-19.58,132.62,66.96,206.45,87.42,117.89,32.67,235.85-109.79,351.27-69.03,30.83,10.89,56.17,33.85,86.21,46.83,46.19,19.95,108.56,20.91,130.57,66.8,8.11,16.91,8.3,36.52,13.32,54.63,5.02,18.11,18.16,36.73,36.65,37.14,10.85.24,20.73-5.89,29.9-11.8,87.36-56.37,174.71-112.75,262.07-169.12,36.73-23.7,79.06-48.42,121.2-37.46,27.4,7.13,48.78,28.14,72.1,44.43,45.67,31.91,102.6,46.77,157.74,41.15,30.8-3.14,62.91-12.24,91.85-1.05,39.6,15.32,57.07,62.07,64.92,104.43,5.09,27.47,7.75,57.36-5.14,82.04-15.38,29.45-48.45,43.66-79.03,55.7-78.08,30.74-157.21,61.75-240.39,71.39-78.08,9.05-158.31-.92-234.71,17.79-76.4,18.71-152.29,79.1-152.75,159.04-152.1-20.87-303.03-50.53-451.83-88.79-209.67-53.92-416.22-125.12-630.99-150.94-105.16-12.64-211.31-14.25-317.19-13.08-68.05.76-140.04,3.84-197.09,41.58-11.85,7.84-25.09,17.53-38.73,13.78-10.6-2.92-17.42-13.1-23.3-22.54-13.65-21.95-27.3-43.89-40.95-65.84-10.22-16.43-20.86-34.71-18.18-53.96,4.62-33.22,43.43-47.16,75.65-54.3,43.91-9.73,122.07-9.18,146.18-53.55,24.43-44.96,22.12-90.73,76.28-114.63Z"/>
  </g>
</svg>