<?xml version="1.0" encoding="UTF-8"?>
<svg id="Calque_2" data-name="Calque 2" xmlns="http://www.w3.org/2000/svg" xmlns:xlink="http://www.w3.org/1999/xlink" viewBox="0 0 427.67 119.31">
  <defs>
    <style>
      .cls-1, .cls-2, .cls-3, .cls-4, .cls-5, .cls-6, .cls-7, .cls-8 {
        stroke-width: 0px;
      }

      .cls-2 {
        fill: #e37a30;
      }

      .cls-3 {
        fill: none;
      }

      .cls-4 {
        fill: #e9b840;
      }

      .cls-5 {
        fill: #376ed5;
      }

      .cls-9 {
        clip-path: url(#clippath);
      }

      .cls-6 {
        fill: #00a540;
      }

      .cls-7 {
        fill: #e05257;
      }

      .cls-8 {
        fill: #993fd1;
      }
    </style>
    <clipPath id="clippath">
      <path class="cls-3" d="m367.54,111.14v-41.8h-41.48v-18.33h41.48V9.54h18.33v41.47h41.8v18.33h-41.8v41.8h-18.33Z"/>
    </clipPath>
  </defs>
  <g id="Calque_32" data-name="Calque 32">
    <g>
      <path class="cls-1" d="m65.48,69.14c0,.39-.39.59-1.17.59-.62,0-1.52-.05-2.71-.15-1.19-.1-2.09-.15-2.71-.15s-1.55.05-2.78.15c-1.24.1-2.17.15-2.78.15-.91,0-2.08-2.47-3.49-7.4s-2.86-7.43-4.32-7.5c-1.21-.06-4.35-.1-9.42-.1h-7.71c-5.37,0-8.43.03-9.18.1-1.17.1-2.42,2.6-3.74,7.52-1.32,4.92-2.34,7.37-3.05,7.37H1.42c-.65,0-.98-.23-.98-.68,0-.33.23-1.06.68-2.2l11.96-32.71c1.01-2.64,4.07-10.24,9.18-22.8.91-2.08,2.15-5.22,3.71-9.42.39-1.24.81-1.86,1.27-1.86.62,0,1.53.08,2.73.24,1.2.16,2.12.24,2.73.24.59,0,1.47-.09,2.66-.27,1.19-.18,2.06-.27,2.61-.27.29,0,.7.6,1.22,1.81.78,1.82,4.64,11.64,11.57,29.44,9.8,25.03,14.7,37.66,14.7,37.89Zm-22.75-26.95c0-.94-1.46-5.18-4.39-12.7-2.83-7.29-4.83-12.08-6.01-14.36-6.74,17.19-10.11,26.19-10.11,27,0,1.11,1.24,1.76,3.71,1.95.13.03,1.72.05,4.79.05h5.03c4.65,0,6.98-.65,6.98-1.95Z"/>
      <path class="cls-1" d="m126.32,26.51c0,7.65-2.07,13.77-6.2,18.36-4.26,4.72-10.17,7.08-17.72,7.08-1.86,0-4.66-.07-8.42-.22s-6.58-.22-8.47-.22c-1.04,0-1.56.67-1.56,2,0,1.73.11,4.31.32,7.76.21,3.45.32,6.04.32,7.76,0,.55-.31.83-.93.83-.68,0-1.72-.07-3.1-.22-1.38-.15-2.42-.22-3.1-.22-.59,0-1.45.05-2.59.15-1.14.1-1.99.15-2.54.15-.81,0-1.22-.5-1.22-1.51,0-3.55.15-8.9.46-16.06.31-7.16.46-12.53.46-16.11,0-10.16-.38-21.06-1.12-32.71l-.05-.73c-.03-.72.39-1.07,1.27-1.07,1.76,0,4.4.02,7.93.05,3.53.03,6.19.05,7.98.05,1.53,0,3.82-.06,6.88-.2,3.06-.13,5.35-.2,6.88-.2,7.19,0,13.1,2.44,17.72,7.32,4.52,4.79,6.79,10.77,6.79,17.97Zm-12.3.73c0-4.88-1.32-8.79-3.96-11.72-2.73-3.06-6.51-4.59-11.33-4.59-1.5,0-4.17.13-8.01.39-4.39.26-6.66.52-6.79.78-.23.39-.34,5.99-.34,16.8,0,1.37.04,3.42.12,6.15.08,2.73.12,4.79.12,6.15,0,.29.36.52,1.07.68,1.79.36,6.75.54,14.89.54,4.56,0,8.11-1.42,10.64-4.25,2.38-2.7,3.56-6.35,3.56-10.94Z"/>
      <path class="cls-1" d="m188.72,26.51c0,7.65-2.07,13.77-6.2,18.36-4.26,4.72-10.17,7.08-17.72,7.08-1.86,0-4.66-.07-8.42-.22s-6.58-.22-8.47-.22c-1.04,0-1.56.67-1.56,2,0,1.73.11,4.31.32,7.76.21,3.45.32,6.04.32,7.76,0,.55-.31.83-.93.83-.68,0-1.72-.07-3.1-.22-1.38-.15-2.42-.22-3.1-.22-.59,0-1.45.05-2.59.15-1.14.1-1.99.15-2.54.15-.81,0-1.22-.5-1.22-1.51,0-3.55.15-8.9.46-16.06.31-7.16.46-12.53.46-16.11,0-10.16-.38-21.06-1.12-32.71l-.05-.73c-.03-.72.39-1.07,1.27-1.07,1.76,0,4.4.02,7.93.05,3.53.03,6.19.05,7.98.05,1.53,0,3.82-.06,6.88-.2,3.06-.13,5.35-.2,6.88-.2,7.19,0,13.1,2.44,17.72,7.32,4.52,4.79,6.79,10.77,6.79,17.97Zm-12.3.73c0-4.88-1.32-8.79-3.96-11.72-2.73-3.06-6.51-4.59-11.33-4.59-1.5,0-4.17.13-8.01.39-4.39.26-6.66.52-6.79.78-.23.39-.34,5.99-.34,16.8,0,1.37.04,3.42.12,6.15.08,2.73.12,4.79.12,6.15,0,.29.36.52,1.07.68,1.79.36,6.75.54,14.89.54,4.56,0,8.11-1.42,10.64-4.25,2.38-2.7,3.56-6.35,3.56-10.94Z"/>
      <path class="cls-1" d="m242.04,59.91c0,.52-.13,1.27-.39,2.25-.29,1.24-.47,1.99-.54,2.25-.1,1.17-.33,2.88-.68,5.13-.16.59-.59.88-1.27.88-.33,0-.94-.07-1.86-.2-4-.59-10.21-.88-18.6-.88-2.38,0-5.96.07-10.74.2-4.79.13-8.37.2-10.74.2-1.07,0-1.61-.47-1.61-1.42,0-3.65.2-9.12.61-16.43.41-7.31.61-12.78.61-16.43s-.2-10.63-.59-20.75c-.07-2.6-.24-6.49-.54-11.67l-.05-.68c-.03-.75.39-1.12,1.27-1.12,2.28,0,5.7.07,10.25.2,4.56.13,7.97.2,10.25.2s5.44-.06,9.79-.2c4.35-.13,7.61-.2,9.79-.2,1.53,0,2.36.47,2.49,1.42.68,4.3,1.03,6.97,1.03,8.01,0,.75-.36,1.12-1.07,1.12-2.77,0-6.96-.15-12.57-.46-5.62-.31-9.84-.46-12.67-.46-2.67,0-4.35.36-5.05,1.07-.7.72-1.05,2.49-1.05,5.32v7.28c0,1.99.05,3.14.15,3.47.29,1.01,1.14,1.51,2.54,1.51.39,0,.94-.02,1.66-.05h1.66c6.38,0,12.11-.11,17.19-.34,1.99-.06,4.33-.23,7.03-.49.68-.06,1.03.23,1.03.88,0,1.04-.12,2.64-.37,4.79s-.37,3.76-.37,4.83c0,.59-.49.88-1.46.88-.39,0-1.84-.11-4.35-.34-1.82-.2-5.92-.29-12.3-.29-5.37,0-8.77.07-10.21.2-1.3.1-2.05.78-2.25,2.05.03-.23.05,1.03.05,3.76v7.23c0,3.39.52,5.5,1.56,6.35.81.68,2.85,1.03,6.1,1.03l5.37-.05c2.28,0,8.67-.39,19.19-1.17l.73-.05c.65-.06.98.34.98,1.22Z"/>
      <path class="cls-1" d="m295.65,59.13c0,4.56-.24,7.8-.73,9.72-.23.94-.8,1.42-1.71,1.42-2.41,0-6.02-.14-10.84-.42-4.82-.28-8.43-.42-10.84-.42-2.28,0-5.68.05-10.21.15-4.53.1-7.93.15-10.21.15-.81,0-1.22-.41-1.22-1.22,0-3.55.12-8.9.37-16.06.24-7.16.37-12.53.37-16.11,0-3.78-.17-9.43-.51-16.97-.34-7.54-.51-13.19-.51-16.97,0-.72.41-1.07,1.22-1.07.59,0,1.48.05,2.69.15,1.2.1,2.12.15,2.73.15.59,0,1.5-.05,2.73-.15,1.24-.1,2.15-.15,2.73-.15.78,0,1.17.31,1.17.93,0,3.45-.13,8.64-.39,15.58-.26,6.93-.39,12.14-.39,15.62v7.71c-.03,3.45-.05,6.02-.05,7.71,0,7.23.29,10.84.88,10.84,12.01,0,21.08-.29,27.2-.88.29-.03,1.04-.15,2.25-.34.98-.2,1.72-.29,2.25-.29.68,0,1.03.31,1.03.93Z"/>
      <path class="cls-1" d="m15.04,114.73l-2.44-6.24h-7.87l-2.42,6.24H0l7.76-19.71h1.92l7.72,19.71h-2.36Zm-3.16-8.3l-2.28-6.08c-.29-.77-.6-1.71-.91-2.83-.2.86-.48,1.8-.85,2.83l-2.31,6.08h6.35Z"/>
      <path class="cls-1" d="m31.18,109.5c0,1.73-.63,3.08-1.88,4.04-1.25.97-2.95,1.45-5.1,1.45-2.33,0-4.12-.3-5.37-.9v-2.2c.8.34,1.68.61,2.63.81.95.2,1.89.29,2.82.29,1.52,0,2.67-.29,3.44-.87.77-.58,1.15-1.38,1.15-2.41,0-.68-.14-1.24-.41-1.67s-.73-.83-1.37-1.2c-.64-.37-1.61-.78-2.92-1.25-1.83-.65-3.13-1.43-3.91-2.32-.78-.9-1.17-2.06-1.17-3.5,0-1.51.57-2.72,1.71-3.61,1.14-.9,2.64-1.34,4.51-1.34s3.75.36,5.38,1.07l-.71,1.99c-1.62-.68-3.2-1.02-4.73-1.02-1.21,0-2.15.26-2.83.78-.68.52-1.02,1.24-1.02,2.16,0,.68.12,1.24.38,1.67.25.43.67.83,1.27,1.19.6.36,1.51.76,2.73,1.2,2.06.73,3.48,1.52,4.25,2.36.77.84,1.16,1.93,1.16,3.28Z"/>
      <path class="cls-1" d="m46.27,109.5c0,1.73-.63,3.08-1.88,4.04-1.25.97-2.95,1.45-5.1,1.45-2.33,0-4.12-.3-5.37-.9v-2.2c.8.34,1.68.61,2.63.81.95.2,1.89.29,2.82.29,1.52,0,2.67-.29,3.44-.87.77-.58,1.15-1.38,1.15-2.41,0-.68-.14-1.24-.41-1.67s-.73-.83-1.37-1.2c-.64-.37-1.61-.78-2.92-1.25-1.83-.65-3.13-1.43-3.91-2.32-.78-.9-1.17-2.06-1.17-3.5,0-1.51.57-2.72,1.71-3.61,1.14-.9,2.64-1.34,4.51-1.34s3.75.36,5.38,1.07l-.71,1.99c-1.62-.68-3.2-1.02-4.73-1.02-1.21,0-2.15.26-2.83.78-.68.52-1.02,1.24-1.02,2.16,0,.68.12,1.24.38,1.67.25.43.67.83,1.27,1.19.6.36,1.51.76,2.73,1.2,2.06.73,3.48,1.52,4.25,2.36.77.84,1.16,1.93,1.16,3.28Z"/>
      <path class="cls-1" d="m67.33,104.88c0,3.14-.79,5.61-2.38,7.41-1.59,1.8-3.8,2.7-6.63,2.7s-5.12-.88-6.69-2.65-2.36-4.26-2.36-7.49.79-5.67,2.36-7.43c1.58-1.76,3.81-2.64,6.71-2.64s5.02.9,6.61,2.69c1.58,1.79,2.38,4.26,2.38,7.41Zm-15.64,0c0,2.66.57,4.68,1.7,6.05,1.13,1.37,2.78,2.06,4.93,2.06s3.82-.68,4.93-2.05c1.11-1.37,1.67-3.39,1.67-6.06s-.55-4.64-1.66-6.01c-1.11-1.36-2.74-2.05-4.91-2.05s-3.83.69-4.96,2.06-1.7,3.37-1.7,6Z"/>
      <path class="cls-1" d="m80.11,96.85c-2.16,0-3.86.72-5.11,2.15-1.25,1.44-1.87,3.4-1.87,5.9s.6,4.55,1.81,5.96c1.2,1.4,2.92,2.1,5.15,2.1,1.37,0,2.93-.25,4.69-.74v2c-1.36.51-3.04.77-5.04.77-2.89,0-5.12-.88-6.69-2.63s-2.36-4.25-2.36-7.48c0-2.02.38-3.8,1.13-5.32.76-1.52,1.85-2.69,3.28-3.52,1.43-.82,3.11-1.24,5.04-1.24,2.06,0,3.86.38,5.4,1.13l-.97,1.96c-1.49-.7-2.97-1.05-4.46-1.05Z"/>
      <path class="cls-1" d="m89.05,114.73v-19.63h2.28v19.63h-2.28Z"/>
      <path class="cls-1" d="m109.06,114.73l-2.44-6.24h-7.87l-2.42,6.24h-2.31l7.76-19.71h1.92l7.72,19.71h-2.36Zm-3.16-8.3l-2.28-6.08c-.29-.77-.6-1.71-.91-2.83-.2.86-.48,1.8-.85,2.83l-2.31,6.08h6.35Z"/>
      <path class="cls-1" d="m120.16,114.73h-2.28v-17.6h-6.22v-2.03h14.72v2.03h-6.22v17.6Z"/>
      <path class="cls-1" d="m129.34,114.73v-19.63h2.28v19.63h-2.28Z"/>
      <path class="cls-1" d="m154.04,104.88c0,3.14-.79,5.61-2.38,7.41-1.59,1.8-3.8,2.7-6.63,2.7s-5.12-.88-6.69-2.65-2.36-4.26-2.36-7.49.79-5.67,2.36-7.43c1.58-1.76,3.81-2.64,6.71-2.64s5.02.9,6.61,2.69c1.58,1.79,2.38,4.26,2.38,7.41Zm-15.64,0c0,2.66.57,4.68,1.7,6.05,1.13,1.37,2.78,2.06,4.93,2.06s3.82-.68,4.93-2.05c1.11-1.37,1.67-3.39,1.67-6.06s-.55-4.64-1.66-6.01c-1.11-1.36-2.74-2.05-4.91-2.05s-3.83.69-4.96,2.06-1.7,3.37-1.7,6Z"/>
      <path class="cls-1" d="m173.75,114.73h-2.6l-10.73-16.48h-.11c.14,1.93.21,3.71.21,5.32v11.16h-2.11v-19.63h2.58l10.7,16.41h.11c-.02-.24-.06-1.02-.12-2.33s-.08-2.25-.07-2.81v-11.27h2.13v19.63Z"/>
      <path class="cls-1" d="m186.25,114.73v-19.27h2.24v17.24h8.5v2.03h-10.74Z"/>
      <path class="cls-1" d="m208.74,104.63h6.55v9.37c-1.02.33-2.06.57-3.11.74s-2.28.25-3.67.25c-2.92,0-5.19-.87-6.82-2.6s-2.44-4.17-2.44-7.3c0-2,.4-3.76,1.21-5.27.8-1.51,1.96-2.66,3.47-3.45,1.51-.79,3.28-1.19,5.31-1.19s3.97.38,5.75,1.13l-.87,1.98c-1.74-.74-3.42-1.11-5.02-1.11-2.35,0-4.18.7-5.5,2.1s-1.98,3.34-1.98,5.81c0,2.6.63,4.57,1.9,5.92,1.27,1.34,3.14,2.02,5.6,2.02,1.34,0,2.64-.15,3.92-.46v-5.93h-4.31v-2Z"/>
      <path class="cls-1" d="m219.92,95.45h5.44c2.56,0,4.41.38,5.55,1.15s1.71,1.97,1.71,3.63c0,1.14-.32,2.09-.96,2.83-.64.74-1.57,1.22-2.79,1.44v.13c2.93.5,4.39,2.04,4.39,4.61,0,1.72-.58,3.07-1.75,4.03-1.16.97-2.79,1.45-4.88,1.45h-6.72v-19.27Zm2.24,8.25h3.69c1.58,0,2.72-.25,3.42-.75.69-.5,1.04-1.33,1.04-2.51,0-1.08-.39-1.86-1.16-2.34-.77-.48-2-.72-3.69-.72h-3.3v6.31Zm0,1.9v7.21h4.02c1.56,0,2.73-.3,3.51-.9.79-.6,1.18-1.54,1.18-2.83,0-1.2-.4-2.07-1.21-2.64-.8-.56-2.03-.84-3.67-.84h-3.84Z"/>
      <path class="cls-1" d="m243.34,114.73h-2.24v-17.28h-6.1v-1.99h14.45v1.99h-6.1v17.28Z"/>
      <path class="cls-1" d="m269.08,105.06c0,2.47-.5,4.52-1.49,6.16-.99,1.63-2.4,2.74-4.21,3.32l4.59,4.77h-3.26l-3.76-4.35-.73.03c-2.84,0-5.03-.87-6.57-2.6-1.54-1.74-2.31-4.19-2.31-7.35s.77-5.57,2.32-7.3c1.55-1.73,3.74-2.59,6.59-2.59s4.93.88,6.49,2.64c1.55,1.76,2.33,4.18,2.33,7.28Zm-15.36,0c0,2.61.56,4.59,1.67,5.94,1.11,1.35,2.73,2.02,4.84,2.02s3.75-.67,4.84-2.02,1.63-3.33,1.63-5.95-.54-4.56-1.63-5.9c-1.09-1.34-2.69-2.01-4.82-2.01s-3.76.67-4.87,2.02c-1.11,1.35-1.67,3.31-1.67,5.89Z"/>
      <path class="cls-1" d="m273.38,114.73v-19.27h2.24v19.27h-2.24Z"/>
      <path class="cls-1" d="m293.02,114.73l-2.4-6.13h-7.73l-2.37,6.13h-2.27l7.62-19.35h1.89l7.58,19.35h-2.32Zm-3.1-8.15l-2.24-5.97c-.29-.76-.59-1.68-.9-2.78-.19.84-.47,1.77-.83,2.78l-2.27,5.97h6.24Z"/>
    </g>
    <g class="cls-9">
      <rect class="cls-7" x="345" y="-8.28" width="14.39" height="86.36" transform="translate(127.84 -238.82) rotate(45)"/>
      <rect class="cls-2" x="354.94" y="1.67" width="14.39" height="86.36" transform="translate(137.78 -242.94) rotate(45)"/>
      <rect class="cls-4" x="365.09" y="11.82" width="14.39" height="86.36" transform="translate(147.93 -247.14) rotate(45)"/>
      <rect class="cls-6" x="375.15" y="22.02" width="14.39" height="86.36" transform="translate(158.09 -251.27) rotate(45)"/>
      <rect class="cls-5" x="385.23" y="31.96" width="14.39" height="86.36" transform="translate(168.07 -255.48) rotate(45)"/>
      <rect class="cls-8" x="395.19" y="41.91" width="14.39" height="86.36" transform="translate(178.03 -259.61) rotate(45)"/>
    </g>
  </g>
</svg>